  0
SECTION
  2
HEADER
  9
$ACADVER
  1
AC1009
  9
$INSUNITS
 70
     1
 9
$MEASUREMENT
 70
    0
  0
ENDSEC
  0
SECTION
  2
TABLES
  0
TABLE
  2
LAYER
 70
     8
  0
LAYER
  2
0
 62
     7
 70
0
  6
CONTINUOUS
  0
LAYER
  2
1
 62
     1
 70
0
  6
CONTINUOUS
  0
LAYER
  2
2
 62
     2
 70
0
  6
CONTINUOUS
  0
LAYER
  2
3
 62
     3
 70
0
  6
CONTINUOUS
  0
LAYER
  2
4
 62
     4
 70
0
  6
CONTINUOUS
  0
LAYER
  2
5
 62
     5
 70
0
  6
CONTINUOUS
  0
LAYER
  2
6
 62
     6
 70
0
  6
CONTINUOUS
  0
LAYER
  2
7
 62
     7
 70
0
  6
CONTINUOUS
  0
ENDTAB
  0
TABLE
  2
STYLE
 70
     1
  0
STYLE
 70
     0
  2
STANDARD
  3
TXT
 40
0.00
 41
1.00
 42
1.00
 50
0.00
 71
     0
  0
ENDTAB
  0
ENDSEC
  0
SECTION
  2
BLOCKS
  0
BLOCK
  8
0
  2
EPAD
 70
0
 10
0.0
 20
0.0
  0
POLYLINE
  8
0
 66
1
 70
1
 40
0.5
 41
0.5
  0
VERTEX
  8
0
 10
-0.25
 20
0.0
 42
1.0
  0
VERTEX
  8
0
 10
0.25
 20
0.0
 42
1.0
  0
SEQEND
  8
0
  0
ENDBLK
  8
0
  0
BLOCK
  8
0
  2
RPAD
 70
0
 10
0.0
 20
0.0
  0
TRACE
  8
0
 10
-0.5
 20
-0.5
 11
-0.5
 21
0.5
 12
0.5
 22
-0.5
 13
0.5
 23
0.5
  0
ENDBLK
  8
0
  0
ENDSEC
0
SECTION
2
ENTITIES
0
INSERT
8
0
2
EPAD
10
-0.396063
20
1.166929
41
0.110000
42
0.110000
0
INSERT
8
0
2
EPAD
10
0.470079
20
1.166929
41
0.110000
42
0.110000
0
POLYLINE
8
0
66
1
70
1
40
0
41
0
0
VERTEX
8
0
10
-0.402913
20
1.050717
0
VERTEX
8
0
10
-0.402913
20
1.034716
0
VERTEX
8
0
10
-0.403152
20
1.032263
0
VERTEX
8
0
10
-0.403839
20
1.029994
0
VERTEX
8
0
10
-0.404930
20
1.027954
0
VERTEX
8
0
10
-0.406382
20
1.026185
0
VERTEX
8
0
10
-0.408150
20
1.024734
0
VERTEX
8
0
10
-0.410191
20
1.023643
0
VERTEX
8
0
10
-0.412460
20
1.022956
0
VERTEX
8
0
10
-0.414913
20
1.022717
0
VERTEX
8
0
10
-0.470913
20
1.022717
0
VERTEX
8
0
10
-0.473367
20
1.022956
0
VERTEX
8
0
10
-0.475636
20
1.023643
0
VERTEX
8
0
10
-0.477676
20
1.024734
0
VERTEX
8
0
10
-0.479444
20
1.026185
0
VERTEX
8
0
10
-0.480896
20
1.027954
0
VERTEX
8
0
10
-0.481988
20
1.029994
0
VERTEX
8
0
10
-0.482675
20
1.032263
0
VERTEX
8
0
10
-0.482913
20
1.034716
0
VERTEX
8
0
10
-0.482913
20
1.050717
0
VERTEX
8
0
10
-0.482675
20
1.053170
0
VERTEX
8
0
10
-0.481988
20
1.055439
0
VERTEX
8
0
10
-0.480896
20
1.057480
0
VERTEX
8
0
10
-0.479444
20
1.059248
0
VERTEX
8
0
10
-0.477676
20
1.060699
0
VERTEX
8
0
10
-0.475636
20
1.061791
0
VERTEX
8
0
10
-0.473367
20
1.062478
0
VERTEX
8
0
10
-0.470913
20
1.062716
0
VERTEX
8
0
10
-0.414913
20
1.062716
0
VERTEX
8
0
10
-0.412460
20
1.062478
0
VERTEX
8
0
10
-0.410191
20
1.061791
0
VERTEX
8
0
10
-0.408150
20
1.060699
0
VERTEX
8
0
10
-0.406382
20
1.059248
0
VERTEX
8
0
10
-0.404930
20
1.057480
0
VERTEX
8
0
10
-0.403839
20
1.055439
0
VERTEX
8
0
10
-0.403152
20
1.053170
0
VERTEX
8
0
10
-0.402913
20
1.050717
0
SEQEND
8
0
0
POLYLINE
8
0
66
1
70
1
40
0
41
0
0
VERTEX
8
0
10
-0.402913
20
0.950717
0
VERTEX
8
0
10
-0.402913
20
0.934717
0
VERTEX
8
0
10
-0.403152
20
0.932263
0
VERTEX
8
0
10
-0.403839
20
0.929994
0
VERTEX
8
0
10
-0.404930
20
0.927954
0
VERTEX
8
0
10
-0.406382
20
0.926185
0
VERTEX
8
0
10
-0.408150
20
0.924734
0
VERTEX
8
0
10
-0.410191
20
0.923643
0
VERTEX
8
0
10
-0.412460
20
0.922956
0
VERTEX
8
0
10
-0.414913
20
0.922717
0
VERTEX
8
0
10
-0.470913
20
0.922717
0
VERTEX
8
0
10
-0.473367
20
0.922956
0
VERTEX
8
0
10
-0.475636
20
0.923643
0
VERTEX
8
0
10
-0.477676
20
0.924734
0
VERTEX
8
0
10
-0.479444
20
0.926185
0
VERTEX
8
0
10
-0.480896
20
0.927954
0
VERTEX
8
0
10
-0.481988
20
0.929994
0
VERTEX
8
0
10
-0.482675
20
0.932263
0
VERTEX
8
0
10
-0.482913
20
0.934717
0
VERTEX
8
0
10
-0.482913
20
0.950717
0
VERTEX
8
0
10
-0.482675
20
0.953170
0
VERTEX
8
0
10
-0.481988
20
0.955439
0
VERTEX
8
0
10
-0.480896
20
0.957480
0
VERTEX
8
0
10
-0.479444
20
0.959248
0
VERTEX
8
0
10
-0.477676
20
0.960699
0
VERTEX
8
0
10
-0.475636
20
0.961791
0
VERTEX
8
0
10
-0.473367
20
0.962478
0
VERTEX
8
0
10
-0.470913
20
0.962717
0
VERTEX
8
0
10
-0.414913
20
0.962717
0
VERTEX
8
0
10
-0.412460
20
0.962478
0
VERTEX
8
0
10
-0.410191
20
0.961791
0
VERTEX
8
0
10
-0.408150
20
0.960699
0
VERTEX
8
0
10
-0.406382
20
0.959248
0
VERTEX
8
0
10
-0.404930
20
0.957480
0
VERTEX
8
0
10
-0.403839
20
0.955439
0
VERTEX
8
0
10
-0.403152
20
0.953170
0
VERTEX
8
0
10
-0.402913
20
0.950717
0
SEQEND
8
0
0
POLYLINE
8
0
66
1
70
1
40
0
41
0
0
VERTEX
8
0
10
-0.402913
20
0.850717
0
VERTEX
8
0
10
-0.402913
20
0.834717
0
VERTEX
8
0
10
-0.403152
20
0.832263
0
VERTEX
8
0
10
-0.403839
20
0.829994
0
VERTEX
8
0
10
-0.404930
20
0.827954
0
VERTEX
8
0
10
-0.406382
20
0.826185
0
VERTEX
8
0
10
-0.408150
20
0.824734
0
VERTEX
8
0
10
-0.410191
20
0.823642
0
VERTEX
8
0
10
-0.412460
20
0.822955
0
VERTEX
8
0
10
-0.414913
20
0.822717
0
VERTEX
8
0
10
-0.470913
20
0.822717
0
VERTEX
8
0
10
-0.473367
20
0.822955
0
VERTEX
8
0
10
-0.475636
20
0.823642
0
VERTEX
8
0
10
-0.477676
20
0.824734
0
VERTEX
8
0
10
-0.479444
20
0.826185
0
VERTEX
8
0
10
-0.480896
20
0.827954
0
VERTEX
8
0
10
-0.481988
20
0.829994
0
VERTEX
8
0
10
-0.482675
20
0.832263
0
VERTEX
8
0
10
-0.482913
20
0.834717
0
VERTEX
8
0
10
-0.482913
20
0.850717
0
VERTEX
8
0
10
-0.482675
20
0.853170
0
VERTEX
8
0
10
-0.481988
20
0.855439
0
VERTEX
8
0
10
-0.480896
20
0.857480
0
VERTEX
8
0
10
-0.479444
20
0.859248
0
VERTEX
8
0
10
-0.477676
20
0.860699
0
VERTEX
8
0
10
-0.475636
20
0.861791
0
VERTEX
8
0
10
-0.473367
20
0.862478
0
VERTEX
8
0
10
-0.470913
20
0.862717
0
VERTEX
8
0
10
-0.414913
20
0.862717
0
VERTEX
8
0
10
-0.412460
20
0.862478
0
VERTEX
8
0
10
-0.410191
20
0.861791
0
VERTEX
8
0
10
-0.408150
20
0.860699
0
VERTEX
8
0
10
-0.406382
20
0.859248
0
VERTEX
8
0
10
-0.404930
20
0.857480
0
VERTEX
8
0
10
-0.403839
20
0.855439
0
VERTEX
8
0
10
-0.403152
20
0.853170
0
VERTEX
8
0
10
-0.402913
20
0.850717
0
SEQEND
8
0
0
POLYLINE
8
0
66
1
70
1
40
0
41
0
0
VERTEX
8
0
10
-0.402913
20
0.750717
0
VERTEX
8
0
10
-0.402913
20
0.734717
0
VERTEX
8
0
10
-0.403152
20
0.732263
0
VERTEX
8
0
10
-0.403839
20
0.729994
0
VERTEX
8
0
10
-0.404930
20
0.727954
0
VERTEX
8
0
10
-0.406382
20
0.726185
0
VERTEX
8
0
10
-0.408150
20
0.724734
0
VERTEX
8
0
10
-0.410191
20
0.723643
0
VERTEX
8
0
10
-0.412460
20
0.722956
0
VERTEX
8
0
10
-0.414913
20
0.722717
0
VERTEX
8
0
10
-0.470913
20
0.722717
0
VERTEX
8
0
10
-0.473367
20
0.722956
0
VERTEX
8
0
10
-0.475636
20
0.723643
0
VERTEX
8
0
10
-0.477676
20
0.724734
0
VERTEX
8
0
10
-0.479444
20
0.726185
0
VERTEX
8
0
10
-0.480896
20
0.727954
0
VERTEX
8
0
10
-0.481988
20
0.729994
0
VERTEX
8
0
10
-0.482675
20
0.732263
0
VERTEX
8
0
10
-0.482913
20
0.734717
0
VERTEX
8
0
10
-0.482913
20
0.750717
0
VERTEX
8
0
10
-0.482675
20
0.753170
0
VERTEX
8
0
10
-0.481988
20
0.755439
0
VERTEX
8
0
10
-0.480896
20
0.757480
0
VERTEX
8
0
10
-0.479444
20
0.759248
0
VERTEX
8
0
10
-0.477676
20
0.760699
0
VERTEX
8
0
10
-0.475636
20
0.761791
0
VERTEX
8
0
10
-0.473367
20
0.762478
0
VERTEX
8
0
10
-0.470913
20
0.762717
0
VERTEX
8
0
10
-0.414913
20
0.762717
0
VERTEX
8
0
10
-0.412460
20
0.762478
0
VERTEX
8
0
10
-0.410191
20
0.761791
0
VERTEX
8
0
10
-0.408150
20
0.760699
0
VERTEX
8
0
10
-0.406382
20
0.759248
0
VERTEX
8
0
10
-0.404930
20
0.757480
0
VERTEX
8
0
10
-0.403839
20
0.755439
0
VERTEX
8
0
10
-0.403152
20
0.753170
0
VERTEX
8
0
10
-0.402913
20
0.750717
0
SEQEND
8
0
0
POLYLINE
8
0
66
1
70
1
40
0
41
0
0
VERTEX
8
0
10
-0.402913
20
0.650717
0
VERTEX
8
0
10
-0.402913
20
0.634717
0
VERTEX
8
0
10
-0.403152
20
0.632263
0
VERTEX
8
0
10
-0.403839
20
0.629994
0
VERTEX
8
0
10
-0.404930
20
0.627954
0
VERTEX
8
0
10
-0.406382
20
0.626185
0
VERTEX
8
0
10
-0.408150
20
0.624734
0
VERTEX
8
0
10
-0.410191
20
0.623643
0
VERTEX
8
0
10
-0.412460
20
0.622956
0
VERTEX
8
0
10
-0.414913
20
0.622717
0
VERTEX
8
0
10
-0.470913
20
0.622717
0
VERTEX
8
0
10
-0.473367
20
0.622956
0
VERTEX
8
0
10
-0.475636
20
0.623643
0
VERTEX
8
0
10
-0.477676
20
0.624734
0
VERTEX
8
0
10
-0.479444
20
0.626185
0
VERTEX
8
0
10
-0.480896
20
0.627954
0
VERTEX
8
0
10
-0.481988
20
0.629994
0
VERTEX
8
0
10
-0.482675
20
0.632263
0
VERTEX
8
0
10
-0.482913
20
0.634717
0
VERTEX
8
0
10
-0.482913
20
0.650717
0
VERTEX
8
0
10
-0.482675
20
0.653170
0
VERTEX
8
0
10
-0.481988
20
0.655439
0
VERTEX
8
0
10
-0.480896
20
0.657480
0
VERTEX
8
0
10
-0.479444
20
0.659248
0
VERTEX
8
0
10
-0.477676
20
0.660699
0
VERTEX
8
0
10
-0.475636
20
0.661791
0
VERTEX
8
0
10
-0.473367
20
0.662478
0
VERTEX
8
0
10
-0.470913
20
0.662717
0
VERTEX
8
0
10
-0.414913
20
0.662717
0
VERTEX
8
0
10
-0.412460
20
0.662478
0
VERTEX
8
0
10
-0.410191
20
0.661791
0
VERTEX
8
0
10
-0.408150
20
0.660699
0
VERTEX
8
0
10
-0.406382
20
0.659248
0
VERTEX
8
0
10
-0.404930
20
0.657480
0
VERTEX
8
0
10
-0.403839
20
0.655439
0
VERTEX
8
0
10
-0.403152
20
0.653170
0
VERTEX
8
0
10
-0.402913
20
0.650717
0
SEQEND
8
0
0
POLYLINE
8
0
66
1
70
1
40
0
41
0
0
VERTEX
8
0
10
-0.402913
20
0.550717
0
VERTEX
8
0
10
-0.402913
20
0.534717
0
VERTEX
8
0
10
-0.403152
20
0.532263
0
VERTEX
8
0
10
-0.403839
20
0.529994
0
VERTEX
8
0
10
-0.404930
20
0.527954
0
VERTEX
8
0
10
-0.406382
20
0.526185
0
VERTEX
8
0
10
-0.408150
20
0.524734
0
VERTEX
8
0
10
-0.410191
20
0.523643
0
VERTEX
8
0
10
-0.412460
20
0.522956
0
VERTEX
8
0
10
-0.414913
20
0.522717
0
VERTEX
8
0
10
-0.470913
20
0.522717
0
VERTEX
8
0
10
-0.473367
20
0.522956
0
VERTEX
8
0
10
-0.475636
20
0.523643
0
VERTEX
8
0
10
-0.477676
20
0.524734
0
VERTEX
8
0
10
-0.479444
20
0.526185
0
VERTEX
8
0
10
-0.480896
20
0.527954
0
VERTEX
8
0
10
-0.481988
20
0.529994
0
VERTEX
8
0
10
-0.482675
20
0.532263
0
VERTEX
8
0
10
-0.482913
20
0.534717
0
VERTEX
8
0
10
-0.482913
20
0.550717
0
VERTEX
8
0
10
-0.482675
20
0.553170
0
VERTEX
8
0
10
-0.481988
20
0.555439
0
VERTEX
8
0
10
-0.480896
20
0.557480
0
VERTEX
8
0
10
-0.479444
20
0.559248
0
VERTEX
8
0
10
-0.477676
20
0.560699
0
VERTEX
8
0
10
-0.475636
20
0.561791
0
VERTEX
8
0
10
-0.473367
20
0.562478
0
VERTEX
8
0
10
-0.470913
20
0.562717
0
VERTEX
8
0
10
-0.414913
20
0.562717
0
VERTEX
8
0
10
-0.412460
20
0.562478
0
VERTEX
8
0
10
-0.410191
20
0.561791
0
VERTEX
8
0
10
-0.408150
20
0.560699
0
VERTEX
8
0
10
-0.406382
20
0.559248
0
VERTEX
8
0
10
-0.404930
20
0.557480
0
VERTEX
8
0
10
-0.403839
20
0.555439
0
VERTEX
8
0
10
-0.403152
20
0.553170
0
VERTEX
8
0
10
-0.402913
20
0.550717
0
SEQEND
8
0
0
POLYLINE
8
0
66
1
70
1
40
0
41
0
0
VERTEX
8
0
10
-0.402913
20
0.450717
0
VERTEX
8
0
10
-0.402913
20
0.434717
0
VERTEX
8
0
10
-0.403152
20
0.432263
0
VERTEX
8
0
10
-0.403839
20
0.429994
0
VERTEX
8
0
10
-0.404930
20
0.427954
0
VERTEX
8
0
10
-0.406382
20
0.426185
0
VERTEX
8
0
10
-0.408150
20
0.424734
0
VERTEX
8
0
10
-0.410191
20
0.423643
0
VERTEX
8
0
10
-0.412460
20
0.422956
0
VERTEX
8
0
10
-0.414913
20
0.422717
0
VERTEX
8
0
10
-0.470913
20
0.422717
0
VERTEX
8
0
10
-0.473367
20
0.422956
0
VERTEX
8
0
10
-0.475636
20
0.423643
0
VERTEX
8
0
10
-0.477676
20
0.424734
0
VERTEX
8
0
10
-0.479444
20
0.426185
0
VERTEX
8
0
10
-0.480896
20
0.427954
0
VERTEX
8
0
10
-0.481988
20
0.429994
0
VERTEX
8
0
10
-0.482675
20
0.432263
0
VERTEX
8
0
10
-0.482913
20
0.434717
0
VERTEX
8
0
10
-0.482913
20
0.450717
0
VERTEX
8
0
10
-0.482675
20
0.453170
0
VERTEX
8
0
10
-0.481988
20
0.455439
0
VERTEX
8
0
10
-0.480896
20
0.457480
0
VERTEX
8
0
10
-0.479444
20
0.459248
0
VERTEX
8
0
10
-0.477676
20
0.460699
0
VERTEX
8
0
10
-0.475636
20
0.461791
0
VERTEX
8
0
10
-0.473367
20
0.462478
0
VERTEX
8
0
10
-0.470913
20
0.462717
0
VERTEX
8
0
10
-0.414913
20
0.462717
0
VERTEX
8
0
10
-0.412460
20
0.462478
0
VERTEX
8
0
10
-0.410191
20
0.461791
0
VERTEX
8
0
10
-0.408150
20
0.460699
0
VERTEX
8
0
10
-0.406382
20
0.459248
0
VERTEX
8
0
10
-0.404930
20
0.457480
0
VERTEX
8
0
10
-0.403839
20
0.455439
0
VERTEX
8
0
10
-0.403152
20
0.453170
0
VERTEX
8
0
10
-0.402913
20
0.450717
0
SEQEND
8
0
0
POLYLINE
8
0
66
1
70
1
40
0
41
0
0
VERTEX
8
0
10
-0.402913
20
0.350717
0
VERTEX
8
0
10
-0.402913
20
0.334717
0
VERTEX
8
0
10
-0.403152
20
0.332263
0
VERTEX
8
0
10
-0.403839
20
0.329994
0
VERTEX
8
0
10
-0.404930
20
0.327954
0
VERTEX
8
0
10
-0.406382
20
0.326185
0
VERTEX
8
0
10
-0.408150
20
0.324734
0
VERTEX
8
0
10
-0.410191
20
0.323643
0
VERTEX
8
0
10
-0.412460
20
0.322956
0
VERTEX
8
0
10
-0.414913
20
0.322717
0
VERTEX
8
0
10
-0.470913
20
0.322717
0
VERTEX
8
0
10
-0.473367
20
0.322956
0
VERTEX
8
0
10
-0.475636
20
0.323643
0
VERTEX
8
0
10
-0.477676
20
0.324734
0
VERTEX
8
0
10
-0.479444
20
0.326185
0
VERTEX
8
0
10
-0.480896
20
0.327954
0
VERTEX
8
0
10
-0.481988
20
0.329994
0
VERTEX
8
0
10
-0.482675
20
0.332263
0
VERTEX
8
0
10
-0.482913
20
0.334717
0
VERTEX
8
0
10
-0.482913
20
0.350717
0
VERTEX
8
0
10
-0.482675
20
0.353170
0
VERTEX
8
0
10
-0.481988
20
0.355439
0
VERTEX
8
0
10
-0.480896
20
0.357480
0
VERTEX
8
0
10
-0.479444
20
0.359248
0
VERTEX
8
0
10
-0.477676
20
0.360699
0
VERTEX
8
0
10
-0.475636
20
0.361791
0
VERTEX
8
0
10
-0.473367
20
0.362478
0
VERTEX
8
0
10
-0.470913
20
0.362717
0
VERTEX
8
0
10
-0.414913
20
0.362717
0
VERTEX
8
0
10
-0.412460
20
0.362478
0
VERTEX
8
0
10
-0.410191
20
0.361791
0
VERTEX
8
0
10
-0.408150
20
0.360699
0
VERTEX
8
0
10
-0.406382
20
0.359248
0
VERTEX
8
0
10
-0.404930
20
0.357480
0
VERTEX
8
0
10
-0.403839
20
0.355439
0
VERTEX
8
0
10
-0.403152
20
0.353170
0
VERTEX
8
0
10
-0.402913
20
0.350717
0
SEQEND
8
0
0
POLYLINE
8
0
66
1
70
1
40
0
41
0
0
VERTEX
8
0
10
-0.402913
20
0.250717
0
VERTEX
8
0
10
-0.402913
20
0.234717
0
VERTEX
8
0
10
-0.403152
20
0.232263
0
VERTEX
8
0
10
-0.403839
20
0.229994
0
VERTEX
8
0
10
-0.404930
20
0.227954
0
VERTEX
8
0
10
-0.406382
20
0.226185
0
VERTEX
8
0
10
-0.408150
20
0.224734
0
VERTEX
8
0
10
-0.410191
20
0.223643
0
VERTEX
8
0
10
-0.412460
20
0.222956
0
VERTEX
8
0
10
-0.414913
20
0.222717
0
VERTEX
8
0
10
-0.470913
20
0.222717
0
VERTEX
8
0
10
-0.473367
20
0.222956
0
VERTEX
8
0
10
-0.475636
20
0.223643
0
VERTEX
8
0
10
-0.477676
20
0.224734
0
VERTEX
8
0
10
-0.479444
20
0.226185
0
VERTEX
8
0
10
-0.480896
20
0.227954
0
VERTEX
8
0
10
-0.481988
20
0.229994
0
VERTEX
8
0
10
-0.482675
20
0.232263
0
VERTEX
8
0
10
-0.482913
20
0.234717
0
VERTEX
8
0
10
-0.482913
20
0.250717
0
VERTEX
8
0
10
-0.482675
20
0.253170
0
VERTEX
8
0
10
-0.481988
20
0.255439
0
VERTEX
8
0
10
-0.480896
20
0.257480
0
VERTEX
8
0
10
-0.479444
20
0.259248
0
VERTEX
8
0
10
-0.477676
20
0.260699
0
VERTEX
8
0
10
-0.475636
20
0.261791
0
VERTEX
8
0
10
-0.473367
20
0.262478
0
VERTEX
8
0
10
-0.470913
20
0.262717
0
VERTEX
8
0
10
-0.414913
20
0.262717
0
VERTEX
8
0
10
-0.412460
20
0.262478
0
VERTEX
8
0
10
-0.410191
20
0.261791
0
VERTEX
8
0
10
-0.408150
20
0.260699
0
VERTEX
8
0
10
-0.406382
20
0.259248
0
VERTEX
8
0
10
-0.404930
20
0.257480
0
VERTEX
8
0
10
-0.403839
20
0.255439
0
VERTEX
8
0
10
-0.403152
20
0.253170
0
VERTEX
8
0
10
-0.402913
20
0.250717
0
SEQEND
8
0
0
POLYLINE
8
0
66
1
70
1
40
0
41
0
0
VERTEX
8
0
10
-0.402913
20
0.150717
0
VERTEX
8
0
10
-0.402913
20
0.134717
0
VERTEX
8
0
10
-0.403152
20
0.132263
0
VERTEX
8
0
10
-0.403839
20
0.129994
0
VERTEX
8
0
10
-0.404930
20
0.127954
0
VERTEX
8
0
10
-0.406382
20
0.126185
0
VERTEX
8
0
10
-0.408150
20
0.124734
0
VERTEX
8
0
10
-0.410191
20
0.123643
0
VERTEX
8
0
10
-0.412460
20
0.122956
0
VERTEX
8
0
10
-0.414913
20
0.122717
0
VERTEX
8
0
10
-0.470913
20
0.122717
0
VERTEX
8
0
10
-0.473367
20
0.122956
0
VERTEX
8
0
10
-0.475636
20
0.123643
0
VERTEX
8
0
10
-0.477676
20
0.124734
0
VERTEX
8
0
10
-0.479444
20
0.126185
0
VERTEX
8
0
10
-0.480896
20
0.127954
0
VERTEX
8
0
10
-0.481988
20
0.129994
0
VERTEX
8
0
10
-0.482675
20
0.132263
0
VERTEX
8
0
10
-0.482913
20
0.134717
0
VERTEX
8
0
10
-0.482913
20
0.150717
0
VERTEX
8
0
10
-0.482675
20
0.153170
0
VERTEX
8
0
10
-0.481988
20
0.155439
0
VERTEX
8
0
10
-0.480896
20
0.157480
0
VERTEX
8
0
10
-0.479444
20
0.159248
0
VERTEX
8
0
10
-0.477676
20
0.160699
0
VERTEX
8
0
10
-0.475636
20
0.161791
0
VERTEX
8
0
10
-0.473367
20
0.162478
0
VERTEX
8
0
10
-0.470913
20
0.162717
0
VERTEX
8
0
10
-0.414913
20
0.162717
0
VERTEX
8
0
10
-0.412460
20
0.162478
0
VERTEX
8
0
10
-0.410191
20
0.161791
0
VERTEX
8
0
10
-0.408150
20
0.160699
0
VERTEX
8
0
10
-0.406382
20
0.159248
0
VERTEX
8
0
10
-0.404930
20
0.157480
0
VERTEX
8
0
10
-0.403839
20
0.155439
0
VERTEX
8
0
10
-0.403152
20
0.153170
0
VERTEX
8
0
10
-0.402913
20
0.150717
0
SEQEND
8
0
0
POLYLINE
8
0
66
1
70
1
40
0
41
0
0
VERTEX
8
0
10
-0.402913
20
0.050717
0
VERTEX
8
0
10
-0.402913
20
0.034717
0
VERTEX
8
0
10
-0.403152
20
0.032263
0
VERTEX
8
0
10
-0.403839
20
0.029994
0
VERTEX
8
0
10
-0.404930
20
0.027954
0
VERTEX
8
0
10
-0.406382
20
0.026185
0
VERTEX
8
0
10
-0.408150
20
0.024734
0
VERTEX
8
0
10
-0.410191
20
0.023643
0
VERTEX
8
0
10
-0.412460
20
0.022956
0
VERTEX
8
0
10
-0.414913
20
0.022717
0
VERTEX
8
0
10
-0.470913
20
0.022717
0
VERTEX
8
0
10
-0.473367
20
0.022956
0
VERTEX
8
0
10
-0.475636
20
0.023643
0
VERTEX
8
0
10
-0.477676
20
0.024734
0
VERTEX
8
0
10
-0.479444
20
0.026185
0
VERTEX
8
0
10
-0.480896
20
0.027954
0
VERTEX
8
0
10
-0.481988
20
0.029994
0
VERTEX
8
0
10
-0.482675
20
0.032263
0
VERTEX
8
0
10
-0.482913
20
0.034717
0
VERTEX
8
0
10
-0.482913
20
0.050717
0
VERTEX
8
0
10
-0.482675
20
0.053170
0
VERTEX
8
0
10
-0.481988
20
0.055439
0
VERTEX
8
0
10
-0.480896
20
0.057480
0
VERTEX
8
0
10
-0.479444
20
0.059248
0
VERTEX
8
0
10
-0.477676
20
0.060699
0
VERTEX
8
0
10
-0.475636
20
0.061791
0
VERTEX
8
0
10
-0.473367
20
0.062478
0
VERTEX
8
0
10
-0.470913
20
0.062717
0
VERTEX
8
0
10
-0.414913
20
0.062717
0
VERTEX
8
0
10
-0.412460
20
0.062478
0
VERTEX
8
0
10
-0.410191
20
0.061791
0
VERTEX
8
0
10
-0.408150
20
0.060699
0
VERTEX
8
0
10
-0.406382
20
0.059248
0
VERTEX
8
0
10
-0.404930
20
0.057480
0
VERTEX
8
0
10
-0.403839
20
0.055439
0
VERTEX
8
0
10
-0.403152
20
0.053170
0
VERTEX
8
0
10
-0.402913
20
0.050717
0
SEQEND
8
0
0
POLYLINE
8
0
66
1
70
1
40
0
41
0
0
VERTEX
8
0
10
-0.402913
20
-0.049283
0
VERTEX
8
0
10
-0.402913
20
-0.065283
0
VERTEX
8
0
10
-0.403152
20
-0.067737
0
VERTEX
8
0
10
-0.403839
20
-0.070006
0
VERTEX
8
0
10
-0.404930
20
-0.072046
0
VERTEX
8
0
10
-0.406382
20
-0.073815
0
VERTEX
8
0
10
-0.408150
20
-0.075266
0
VERTEX
8
0
10
-0.410191
20
-0.076357
0
VERTEX
8
0
10
-0.412460
20
-0.077044
0
VERTEX
8
0
10
-0.414913
20
-0.077283
0
VERTEX
8
0
10
-0.470913
20
-0.077283
0
VERTEX
8
0
10
-0.473367
20
-0.077044
0
VERTEX
8
0
10
-0.475636
20
-0.076357
0
VERTEX
8
0
10
-0.477676
20
-0.075266
0
VERTEX
8
0
10
-0.479444
20
-0.073815
0
VERTEX
8
0
10
-0.480896
20
-0.072046
0
VERTEX
8
0
10
-0.481988
20
-0.070006
0
VERTEX
8
0
10
-0.482675
20
-0.067737
0
VERTEX
8
0
10
-0.482913
20
-0.065283
0
VERTEX
8
0
10
-0.482913
20
-0.049283
0
VERTEX
8
0
10
-0.482675
20
-0.046830
0
VERTEX
8
0
10
-0.481988
20
-0.044561
0
VERTEX
8
0
10
-0.480896
20
-0.042520
0
VERTEX
8
0
10
-0.479444
20
-0.040752
0
VERTEX
8
0
10
-0.477676
20
-0.039301
0
VERTEX
8
0
10
-0.475636
20
-0.038209
0
VERTEX
8
0
10
-0.473367
20
-0.037522
0
VERTEX
8
0
10
-0.470913
20
-0.037283
0
VERTEX
8
0
10
-0.414913
20
-0.037283
0
VERTEX
8
0
10
-0.412460
20
-0.037522
0
VERTEX
8
0
10
-0.410191
20
-0.038209
0
VERTEX
8
0
10
-0.408150
20
-0.039301
0
VERTEX
8
0
10
-0.406382
20
-0.040752
0
VERTEX
8
0
10
-0.404930
20
-0.042520
0
VERTEX
8
0
10
-0.403839
20
-0.044561
0
VERTEX
8
0
10
-0.403152
20
-0.046830
0
VERTEX
8
0
10
-0.402913
20
-0.049283
0
SEQEND
8
0
0
POLYLINE
8
0
66
1
70
1
40
0
41
0
0
VERTEX
8
0
10
-0.402913
20
-0.149283
0
VERTEX
8
0
10
-0.402913
20
-0.165283
0
VERTEX
8
0
10
-0.403152
20
-0.167737
0
VERTEX
8
0
10
-0.403839
20
-0.170006
0
VERTEX
8
0
10
-0.404930
20
-0.172046
0
VERTEX
8
0
10
-0.406382
20
-0.173815
0
VERTEX
8
0
10
-0.408150
20
-0.175266
0
VERTEX
8
0
10
-0.410191
20
-0.176357
0
VERTEX
8
0
10
-0.412460
20
-0.177044
0
VERTEX
8
0
10
-0.414913
20
-0.177283
0
VERTEX
8
0
10
-0.470913
20
-0.177283
0
VERTEX
8
0
10
-0.473367
20
-0.177044
0
VERTEX
8
0
10
-0.475636
20
-0.176357
0
VERTEX
8
0
10
-0.477676
20
-0.175266
0
VERTEX
8
0
10
-0.479444
20
-0.173815
0
VERTEX
8
0
10
-0.480896
20
-0.172046
0
VERTEX
8
0
10
-0.481988
20
-0.170006
0
VERTEX
8
0
10
-0.482675
20
-0.167737
0
VERTEX
8
0
10
-0.482913
20
-0.165283
0
VERTEX
8
0
10
-0.482913
20
-0.149283
0
VERTEX
8
0
10
-0.482675
20
-0.146830
0
VERTEX
8
0
10
-0.481988
20
-0.144561
0
VERTEX
8
0
10
-0.480896
20
-0.142520
0
VERTEX
8
0
10
-0.479444
20
-0.140752
0
VERTEX
8
0
10
-0.477676
20
-0.139301
0
VERTEX
8
0
10
-0.475636
20
-0.138209
0
VERTEX
8
0
10
-0.473367
20
-0.137522
0
VERTEX
8
0
10
-0.470913
20
-0.137283
0
VERTEX
8
0
10
-0.414913
20
-0.137283
0
VERTEX
8
0
10
-0.412460
20
-0.137522
0
VERTEX
8
0
10
-0.410191
20
-0.138209
0
VERTEX
8
0
10
-0.408150
20
-0.139301
0
VERTEX
8
0
10
-0.406382
20
-0.140752
0
VERTEX
8
0
10
-0.404930
20
-0.142520
0
VERTEX
8
0
10
-0.403839
20
-0.144561
0
VERTEX
8
0
10
-0.403152
20
-0.146830
0
VERTEX
8
0
10
-0.402913
20
-0.149283
0
SEQEND
8
0
0
POLYLINE
8
0
66
1
70
1
40
0
41
0
0
VERTEX
8
0
10
0.490496
20
1.050717
0
VERTEX
8
0
10
0.490496
20
1.034716
0
VERTEX
8
0
10
0.490257
20
1.032263
0
VERTEX
8
0
10
0.489570
20
1.029994
0
VERTEX
8
0
10
0.488479
20
1.027954
0
VERTEX
8
0
10
0.487027
20
1.026185
0
VERTEX
8
0
10
0.485259
20
1.024734
0
VERTEX
8
0
10
0.483219
20
1.023643
0
VERTEX
8
0
10
0.480950
20
1.022956
0
VERTEX
8
0
10
0.478496
20
1.022717
0
VERTEX
8
0
10
0.422496
20
1.022717
0
VERTEX
8
0
10
0.420043
20
1.022956
0
VERTEX
8
0
10
0.417773
20
1.023643
0
VERTEX
8
0
10
0.415733
20
1.024734
0
VERTEX
8
0
10
0.413965
20
1.026185
0
VERTEX
8
0
10
0.412513
20
1.027954
0
VERTEX
8
0
10
0.411422
20
1.029994
0
VERTEX
8
0
10
0.410735
20
1.032263
0
VERTEX
8
0
10
0.410496
20
1.034716
0
VERTEX
8
0
10
0.410496
20
1.050717
0
VERTEX
8
0
10
0.410735
20
1.053170
0
VERTEX
8
0
10
0.411422
20
1.055439
0
VERTEX
8
0
10
0.412513
20
1.057480
0
VERTEX
8
0
10
0.413965
20
1.059248
0
VERTEX
8
0
10
0.415733
20
1.060699
0
VERTEX
8
0
10
0.417773
20
1.061791
0
VERTEX
8
0
10
0.420043
20
1.062478
0
VERTEX
8
0
10
0.422496
20
1.062716
0
VERTEX
8
0
10
0.478496
20
1.062716
0
VERTEX
8
0
10
0.480950
20
1.062478
0
VERTEX
8
0
10
0.483219
20
1.061791
0
VERTEX
8
0
10
0.485259
20
1.060699
0
VERTEX
8
0
10
0.487027
20
1.059248
0
VERTEX
8
0
10
0.488479
20
1.057480
0
VERTEX
8
0
10
0.489570
20
1.055439
0
VERTEX
8
0
10
0.490257
20
1.053170
0
VERTEX
8
0
10
0.490496
20
1.050717
0
SEQEND
8
0
0
POLYLINE
8
0
66
1
70
1
40
0
41
0
0
VERTEX
8
0
10
0.490496
20
0.950717
0
VERTEX
8
0
10
0.490496
20
0.934717
0
VERTEX
8
0
10
0.490257
20
0.932263
0
VERTEX
8
0
10
0.489570
20
0.929994
0
VERTEX
8
0
10
0.488479
20
0.927954
0
VERTEX
8
0
10
0.487027
20
0.926185
0
VERTEX
8
0
10
0.485259
20
0.924734
0
VERTEX
8
0
10
0.483219
20
0.923643
0
VERTEX
8
0
10
0.480950
20
0.922956
0
VERTEX
8
0
10
0.478496
20
0.922717
0
VERTEX
8
0
10
0.422496
20
0.922717
0
VERTEX
8
0
10
0.420043
20
0.922956
0
VERTEX
8
0
10
0.417773
20
0.923643
0
VERTEX
8
0
10
0.415733
20
0.924734
0
VERTEX
8
0
10
0.413965
20
0.926185
0
VERTEX
8
0
10
0.412513
20
0.927954
0
VERTEX
8
0
10
0.411422
20
0.929994
0
VERTEX
8
0
10
0.410735
20
0.932263
0
VERTEX
8
0
10
0.410496
20
0.934717
0
VERTEX
8
0
10
0.410496
20
0.950717
0
VERTEX
8
0
10
0.410735
20
0.953170
0
VERTEX
8
0
10
0.411422
20
0.955439
0
VERTEX
8
0
10
0.412513
20
0.957480
0
VERTEX
8
0
10
0.413965
20
0.959248
0
VERTEX
8
0
10
0.415733
20
0.960699
0
VERTEX
8
0
10
0.417773
20
0.961791
0
VERTEX
8
0
10
0.420043
20
0.962478
0
VERTEX
8
0
10
0.422496
20
0.962717
0
VERTEX
8
0
10
0.478496
20
0.962717
0
VERTEX
8
0
10
0.480950
20
0.962478
0
VERTEX
8
0
10
0.483219
20
0.961791
0
VERTEX
8
0
10
0.485259
20
0.960699
0
VERTEX
8
0
10
0.487027
20
0.959248
0
VERTEX
8
0
10
0.488479
20
0.957480
0
VERTEX
8
0
10
0.489570
20
0.955439
0
VERTEX
8
0
10
0.490257
20
0.953170
0
VERTEX
8
0
10
0.490496
20
0.950717
0
SEQEND
8
0
0
POLYLINE
8
0
66
1
70
1
40
0
41
0
0
VERTEX
8
0
10
0.490496
20
0.850717
0
VERTEX
8
0
10
0.490496
20
0.834717
0
VERTEX
8
0
10
0.490257
20
0.832263
0
VERTEX
8
0
10
0.489570
20
0.829994
0
VERTEX
8
0
10
0.488479
20
0.827954
0
VERTEX
8
0
10
0.487027
20
0.826185
0
VERTEX
8
0
10
0.485259
20
0.824734
0
VERTEX
8
0
10
0.483219
20
0.823642
0
VERTEX
8
0
10
0.480950
20
0.822955
0
VERTEX
8
0
10
0.478496
20
0.822717
0
VERTEX
8
0
10
0.422496
20
0.822717
0
VERTEX
8
0
10
0.420043
20
0.822955
0
VERTEX
8
0
10
0.417773
20
0.823642
0
VERTEX
8
0
10
0.415733
20
0.824734
0
VERTEX
8
0
10
0.413965
20
0.826185
0
VERTEX
8
0
10
0.412513
20
0.827954
0
VERTEX
8
0
10
0.411422
20
0.829994
0
VERTEX
8
0
10
0.410735
20
0.832263
0
VERTEX
8
0
10
0.410496
20
0.834717
0
VERTEX
8
0
10
0.410496
20
0.850717
0
VERTEX
8
0
10
0.410735
20
0.853170
0
VERTEX
8
0
10
0.411422
20
0.855439
0
VERTEX
8
0
10
0.412513
20
0.857480
0
VERTEX
8
0
10
0.413965
20
0.859248
0
VERTEX
8
0
10
0.415733
20
0.860699
0
VERTEX
8
0
10
0.417773
20
0.861791
0
VERTEX
8
0
10
0.420043
20
0.862478
0
VERTEX
8
0
10
0.422496
20
0.862717
0
VERTEX
8
0
10
0.478496
20
0.862717
0
VERTEX
8
0
10
0.480950
20
0.862478
0
VERTEX
8
0
10
0.483219
20
0.861791
0
VERTEX
8
0
10
0.485259
20
0.860699
0
VERTEX
8
0
10
0.487027
20
0.859248
0
VERTEX
8
0
10
0.488479
20
0.857480
0
VERTEX
8
0
10
0.489570
20
0.855439
0
VERTEX
8
0
10
0.490257
20
0.853170
0
VERTEX
8
0
10
0.490496
20
0.850717
0
SEQEND
8
0
0
POLYLINE
8
0
66
1
70
1
40
0
41
0
0
VERTEX
8
0
10
0.490496
20
0.750717
0
VERTEX
8
0
10
0.490496
20
0.734717
0
VERTEX
8
0
10
0.490257
20
0.732263
0
VERTEX
8
0
10
0.489570
20
0.729994
0
VERTEX
8
0
10
0.488479
20
0.727954
0
VERTEX
8
0
10
0.487027
20
0.726185
0
VERTEX
8
0
10
0.485259
20
0.724734
0
VERTEX
8
0
10
0.483219
20
0.723643
0
VERTEX
8
0
10
0.480950
20
0.722956
0
VERTEX
8
0
10
0.478496
20
0.722717
0
VERTEX
8
0
10
0.422496
20
0.722717
0
VERTEX
8
0
10
0.420043
20
0.722956
0
VERTEX
8
0
10
0.417773
20
0.723643
0
VERTEX
8
0
10
0.415733
20
0.724734
0
VERTEX
8
0
10
0.413965
20
0.726185
0
VERTEX
8
0
10
0.412513
20
0.727954
0
VERTEX
8
0
10
0.411422
20
0.729994
0
VERTEX
8
0
10
0.410735
20
0.732263
0
VERTEX
8
0
10
0.410496
20
0.734717
0
VERTEX
8
0
10
0.410496
20
0.750717
0
VERTEX
8
0
10
0.410735
20
0.753170
0
VERTEX
8
0
10
0.411422
20
0.755439
0
VERTEX
8
0
10
0.412513
20
0.757480
0
VERTEX
8
0
10
0.413965
20
0.759248
0
VERTEX
8
0
10
0.415733
20
0.760699
0
VERTEX
8
0
10
0.417773
20
0.761791
0
VERTEX
8
0
10
0.420043
20
0.762478
0
VERTEX
8
0
10
0.422496
20
0.762717
0
VERTEX
8
0
10
0.478496
20
0.762717
0
VERTEX
8
0
10
0.480950
20
0.762478
0
VERTEX
8
0
10
0.483219
20
0.761791
0
VERTEX
8
0
10
0.485259
20
0.760699
0
VERTEX
8
0
10
0.487027
20
0.759248
0
VERTEX
8
0
10
0.488479
20
0.757480
0
VERTEX
8
0
10
0.489570
20
0.755439
0
VERTEX
8
0
10
0.490257
20
0.753170
0
VERTEX
8
0
10
0.490496
20
0.750717
0
SEQEND
8
0
0
POLYLINE
8
0
66
1
70
1
40
0
41
0
0
VERTEX
8
0
10
0.490496
20
0.650717
0
VERTEX
8
0
10
0.490496
20
0.634717
0
VERTEX
8
0
10
0.490257
20
0.632263
0
VERTEX
8
0
10
0.489570
20
0.629994
0
VERTEX
8
0
10
0.488479
20
0.627954
0
VERTEX
8
0
10
0.487027
20
0.626185
0
VERTEX
8
0
10
0.485259
20
0.624734
0
VERTEX
8
0
10
0.483219
20
0.623643
0
VERTEX
8
0
10
0.480950
20
0.622956
0
VERTEX
8
0
10
0.478496
20
0.622717
0
VERTEX
8
0
10
0.422496
20
0.622717
0
VERTEX
8
0
10
0.420043
20
0.622956
0
VERTEX
8
0
10
0.417773
20
0.623643
0
VERTEX
8
0
10
0.415733
20
0.624734
0
VERTEX
8
0
10
0.413965
20
0.626185
0
VERTEX
8
0
10
0.412513
20
0.627954
0
VERTEX
8
0
10
0.411422
20
0.629994
0
VERTEX
8
0
10
0.410735
20
0.632263
0
VERTEX
8
0
10
0.410496
20
0.634717
0
VERTEX
8
0
10
0.410496
20
0.650717
0
VERTEX
8
0
10
0.410735
20
0.653170
0
VERTEX
8
0
10
0.411422
20
0.655439
0
VERTEX
8
0
10
0.412513
20
0.657480
0
VERTEX
8
0
10
0.413965
20
0.659248
0
VERTEX
8
0
10
0.415733
20
0.660699
0
VERTEX
8
0
10
0.417773
20
0.661791
0
VERTEX
8
0
10
0.420043
20
0.662478
0
VERTEX
8
0
10
0.422496
20
0.662717
0
VERTEX
8
0
10
0.478496
20
0.662717
0
VERTEX
8
0
10
0.480950
20
0.662478
0
VERTEX
8
0
10
0.483219
20
0.661791
0
VERTEX
8
0
10
0.485259
20
0.660699
0
VERTEX
8
0
10
0.487027
20
0.659248
0
VERTEX
8
0
10
0.488479
20
0.657480
0
VERTEX
8
0
10
0.489570
20
0.655439
0
VERTEX
8
0
10
0.490257
20
0.653170
0
VERTEX
8
0
10
0.490496
20
0.650717
0
SEQEND
8
0
0
POLYLINE
8
0
66
1
70
1
40
0
41
0
0
VERTEX
8
0
10
0.490496
20
0.550717
0
VERTEX
8
0
10
0.490496
20
0.534717
0
VERTEX
8
0
10
0.490257
20
0.532263
0
VERTEX
8
0
10
0.489570
20
0.529994
0
VERTEX
8
0
10
0.488479
20
0.527954
0
VERTEX
8
0
10
0.487027
20
0.526185
0
VERTEX
8
0
10
0.485259
20
0.524734
0
VERTEX
8
0
10
0.483219
20
0.523643
0
VERTEX
8
0
10
0.480950
20
0.522956
0
VERTEX
8
0
10
0.478496
20
0.522717
0
VERTEX
8
0
10
0.422496
20
0.522717
0
VERTEX
8
0
10
0.420043
20
0.522956
0
VERTEX
8
0
10
0.417773
20
0.523643
0
VERTEX
8
0
10
0.415733
20
0.524734
0
VERTEX
8
0
10
0.413965
20
0.526185
0
VERTEX
8
0
10
0.412513
20
0.527954
0
VERTEX
8
0
10
0.411422
20
0.529994
0
VERTEX
8
0
10
0.410735
20
0.532263
0
VERTEX
8
0
10
0.410496
20
0.534717
0
VERTEX
8
0
10
0.410496
20
0.550717
0
VERTEX
8
0
10
0.410735
20
0.553170
0
VERTEX
8
0
10
0.411422
20
0.555439
0
VERTEX
8
0
10
0.412513
20
0.557480
0
VERTEX
8
0
10
0.413965
20
0.559248
0
VERTEX
8
0
10
0.415733
20
0.560699
0
VERTEX
8
0
10
0.417773
20
0.561791
0
VERTEX
8
0
10
0.420043
20
0.562478
0
VERTEX
8
0
10
0.422496
20
0.562717
0
VERTEX
8
0
10
0.478496
20
0.562717
0
VERTEX
8
0
10
0.480950
20
0.562478
0
VERTEX
8
0
10
0.483219
20
0.561791
0
VERTEX
8
0
10
0.485259
20
0.560699
0
VERTEX
8
0
10
0.487027
20
0.559248
0
VERTEX
8
0
10
0.488479
20
0.557480
0
VERTEX
8
0
10
0.489570
20
0.555439
0
VERTEX
8
0
10
0.490257
20
0.553170
0
VERTEX
8
0
10
0.490496
20
0.550717
0
SEQEND
8
0
0
POLYLINE
8
0
66
1
70
1
40
0
41
0
0
VERTEX
8
0
10
0.490496
20
0.450717
0
VERTEX
8
0
10
0.490496
20
0.434717
0
VERTEX
8
0
10
0.490257
20
0.432263
0
VERTEX
8
0
10
0.489570
20
0.429994
0
VERTEX
8
0
10
0.488479
20
0.427954
0
VERTEX
8
0
10
0.487027
20
0.426185
0
VERTEX
8
0
10
0.485259
20
0.424734
0
VERTEX
8
0
10
0.483219
20
0.423643
0
VERTEX
8
0
10
0.480950
20
0.422956
0
VERTEX
8
0
10
0.478496
20
0.422717
0
VERTEX
8
0
10
0.422496
20
0.422717
0
VERTEX
8
0
10
0.420043
20
0.422956
0
VERTEX
8
0
10
0.417773
20
0.423643
0
VERTEX
8
0
10
0.415733
20
0.424734
0
VERTEX
8
0
10
0.413965
20
0.426185
0
VERTEX
8
0
10
0.412513
20
0.427954
0
VERTEX
8
0
10
0.411422
20
0.429994
0
VERTEX
8
0
10
0.410735
20
0.432263
0
VERTEX
8
0
10
0.410496
20
0.434717
0
VERTEX
8
0
10
0.410496
20
0.450717
0
VERTEX
8
0
10
0.410735
20
0.453170
0
VERTEX
8
0
10
0.411422
20
0.455439
0
VERTEX
8
0
10
0.412513
20
0.457480
0
VERTEX
8
0
10
0.413965
20
0.459248
0
VERTEX
8
0
10
0.415733
20
0.460699
0
VERTEX
8
0
10
0.417773
20
0.461791
0
VERTEX
8
0
10
0.420043
20
0.462478
0
VERTEX
8
0
10
0.422496
20
0.462717
0
VERTEX
8
0
10
0.478496
20
0.462717
0
VERTEX
8
0
10
0.480950
20
0.462478
0
VERTEX
8
0
10
0.483219
20
0.461791
0
VERTEX
8
0
10
0.485259
20
0.460699
0
VERTEX
8
0
10
0.487027
20
0.459248
0
VERTEX
8
0
10
0.488479
20
0.457480
0
VERTEX
8
0
10
0.489570
20
0.455439
0
VERTEX
8
0
10
0.490257
20
0.453170
0
VERTEX
8
0
10
0.490496
20
0.450717
0
SEQEND
8
0
0
POLYLINE
8
0
66
1
70
1
40
0
41
0
0
VERTEX
8
0
10
0.490496
20
0.350717
0
VERTEX
8
0
10
0.490496
20
0.334717
0
VERTEX
8
0
10
0.490257
20
0.332263
0
VERTEX
8
0
10
0.489570
20
0.329994
0
VERTEX
8
0
10
0.488479
20
0.327954
0
VERTEX
8
0
10
0.487027
20
0.326185
0
VERTEX
8
0
10
0.485259
20
0.324734
0
VERTEX
8
0
10
0.483219
20
0.323643
0
VERTEX
8
0
10
0.480950
20
0.322956
0
VERTEX
8
0
10
0.478496
20
0.322717
0
VERTEX
8
0
10
0.422496
20
0.322717
0
VERTEX
8
0
10
0.420043
20
0.322956
0
VERTEX
8
0
10
0.417773
20
0.323643
0
VERTEX
8
0
10
0.415733
20
0.324734
0
VERTEX
8
0
10
0.413965
20
0.326185
0
VERTEX
8
0
10
0.412513
20
0.327954
0
VERTEX
8
0
10
0.411422
20
0.329994
0
VERTEX
8
0
10
0.410735
20
0.332263
0
VERTEX
8
0
10
0.410496
20
0.334717
0
VERTEX
8
0
10
0.410496
20
0.350717
0
VERTEX
8
0
10
0.410735
20
0.353170
0
VERTEX
8
0
10
0.411422
20
0.355439
0
VERTEX
8
0
10
0.412513
20
0.357480
0
VERTEX
8
0
10
0.413965
20
0.359248
0
VERTEX
8
0
10
0.415733
20
0.360699
0
VERTEX
8
0
10
0.417773
20
0.361791
0
VERTEX
8
0
10
0.420043
20
0.362478
0
VERTEX
8
0
10
0.422496
20
0.362717
0
VERTEX
8
0
10
0.478496
20
0.362717
0
VERTEX
8
0
10
0.480950
20
0.362478
0
VERTEX
8
0
10
0.483219
20
0.361791
0
VERTEX
8
0
10
0.485259
20
0.360699
0
VERTEX
8
0
10
0.487027
20
0.359248
0
VERTEX
8
0
10
0.488479
20
0.357480
0
VERTEX
8
0
10
0.489570
20
0.355439
0
VERTEX
8
0
10
0.490257
20
0.353170
0
VERTEX
8
0
10
0.490496
20
0.350717
0
SEQEND
8
0
0
POLYLINE
8
0
66
1
70
1
40
0
41
0
0
VERTEX
8
0
10
0.490496
20
0.250717
0
VERTEX
8
0
10
0.490496
20
0.234717
0
VERTEX
8
0
10
0.490257
20
0.232263
0
VERTEX
8
0
10
0.489570
20
0.229994
0
VERTEX
8
0
10
0.488479
20
0.227954
0
VERTEX
8
0
10
0.487027
20
0.226185
0
VERTEX
8
0
10
0.485259
20
0.224734
0
VERTEX
8
0
10
0.483219
20
0.223643
0
VERTEX
8
0
10
0.480950
20
0.222956
0
VERTEX
8
0
10
0.478496
20
0.222717
0
VERTEX
8
0
10
0.422496
20
0.222717
0
VERTEX
8
0
10
0.420043
20
0.222956
0
VERTEX
8
0
10
0.417773
20
0.223643
0
VERTEX
8
0
10
0.415733
20
0.224734
0
VERTEX
8
0
10
0.413965
20
0.226185
0
VERTEX
8
0
10
0.412513
20
0.227954
0
VERTEX
8
0
10
0.411422
20
0.229994
0
VERTEX
8
0
10
0.410735
20
0.232263
0
VERTEX
8
0
10
0.410496
20
0.234717
0
VERTEX
8
0
10
0.410496
20
0.250717
0
VERTEX
8
0
10
0.410735
20
0.253170
0
VERTEX
8
0
10
0.411422
20
0.255439
0
VERTEX
8
0
10
0.412513
20
0.257480
0
VERTEX
8
0
10
0.413965
20
0.259248
0
VERTEX
8
0
10
0.415733
20
0.260699
0
VERTEX
8
0
10
0.417773
20
0.261791
0
VERTEX
8
0
10
0.420043
20
0.262478
0
VERTEX
8
0
10
0.422496
20
0.262717
0
VERTEX
8
0
10
0.478496
20
0.262717
0
VERTEX
8
0
10
0.480950
20
0.262478
0
VERTEX
8
0
10
0.483219
20
0.261791
0
VERTEX
8
0
10
0.485259
20
0.260699
0
VERTEX
8
0
10
0.487027
20
0.259248
0
VERTEX
8
0
10
0.488479
20
0.257480
0
VERTEX
8
0
10
0.489570
20
0.255439
0
VERTEX
8
0
10
0.490257
20
0.253170
0
VERTEX
8
0
10
0.490496
20
0.250717
0
SEQEND
8
0
0
POLYLINE
8
0
66
1
70
1
40
0
41
0
0
VERTEX
8
0
10
0.490496
20
0.150717
0
VERTEX
8
0
10
0.490496
20
0.134717
0
VERTEX
8
0
10
0.490257
20
0.132263
0
VERTEX
8
0
10
0.489570
20
0.129994
0
VERTEX
8
0
10
0.488479
20
0.127954
0
VERTEX
8
0
10
0.487027
20
0.126185
0
VERTEX
8
0
10
0.485259
20
0.124734
0
VERTEX
8
0
10
0.483219
20
0.123643
0
VERTEX
8
0
10
0.480950
20
0.122956
0
VERTEX
8
0
10
0.478496
20
0.122717
0
VERTEX
8
0
10
0.422496
20
0.122717
0
VERTEX
8
0
10
0.420043
20
0.122956
0
VERTEX
8
0
10
0.417773
20
0.123643
0
VERTEX
8
0
10
0.415733
20
0.124734
0
VERTEX
8
0
10
0.413965
20
0.126185
0
VERTEX
8
0
10
0.412513
20
0.127954
0
VERTEX
8
0
10
0.411422
20
0.129994
0
VERTEX
8
0
10
0.410735
20
0.132263
0
VERTEX
8
0
10
0.410496
20
0.134717
0
VERTEX
8
0
10
0.410496
20
0.150717
0
VERTEX
8
0
10
0.410735
20
0.153170
0
VERTEX
8
0
10
0.411422
20
0.155439
0
VERTEX
8
0
10
0.412513
20
0.157480
0
VERTEX
8
0
10
0.413965
20
0.159248
0
VERTEX
8
0
10
0.415733
20
0.160699
0
VERTEX
8
0
10
0.417773
20
0.161791
0
VERTEX
8
0
10
0.420043
20
0.162478
0
VERTEX
8
0
10
0.422496
20
0.162717
0
VERTEX
8
0
10
0.478496
20
0.162717
0
VERTEX
8
0
10
0.480950
20
0.162478
0
VERTEX
8
0
10
0.483219
20
0.161791
0
VERTEX
8
0
10
0.485259
20
0.160699
0
VERTEX
8
0
10
0.487027
20
0.159248
0
VERTEX
8
0
10
0.488479
20
0.157480
0
VERTEX
8
0
10
0.489570
20
0.155439
0
VERTEX
8
0
10
0.490257
20
0.153170
0
VERTEX
8
0
10
0.490496
20
0.150717
0
SEQEND
8
0
0
POLYLINE
8
0
66
1
70
1
40
0
41
0
0
VERTEX
8
0
10
0.490496
20
0.050717
0
VERTEX
8
0
10
0.490496
20
0.034717
0
VERTEX
8
0
10
0.490257
20
0.032263
0
VERTEX
8
0
10
0.489570
20
0.029994
0
VERTEX
8
0
10
0.488479
20
0.027954
0
VERTEX
8
0
10
0.487027
20
0.026185
0
VERTEX
8
0
10
0.485259
20
0.024734
0
VERTEX
8
0
10
0.483219
20
0.023643
0
VERTEX
8
0
10
0.480950
20
0.022956
0
VERTEX
8
0
10
0.478496
20
0.022717
0
VERTEX
8
0
10
0.422496
20
0.022717
0
VERTEX
8
0
10
0.420043
20
0.022956
0
VERTEX
8
0
10
0.417773
20
0.023643
0
VERTEX
8
0
10
0.415733
20
0.024734
0
VERTEX
8
0
10
0.413965
20
0.026185
0
VERTEX
8
0
10
0.412513
20
0.027954
0
VERTEX
8
0
10
0.411422
20
0.029994
0
VERTEX
8
0
10
0.410735
20
0.032263
0
VERTEX
8
0
10
0.410496
20
0.034717
0
VERTEX
8
0
10
0.410496
20
0.050717
0
VERTEX
8
0
10
0.410735
20
0.053170
0
VERTEX
8
0
10
0.411422
20
0.055439
0
VERTEX
8
0
10
0.412513
20
0.057480
0
VERTEX
8
0
10
0.413965
20
0.059248
0
VERTEX
8
0
10
0.415733
20
0.060699
0
VERTEX
8
0
10
0.417773
20
0.061791
0
VERTEX
8
0
10
0.420043
20
0.062478
0
VERTEX
8
0
10
0.422496
20
0.062717
0
VERTEX
8
0
10
0.478496
20
0.062717
0
VERTEX
8
0
10
0.480950
20
0.062478
0
VERTEX
8
0
10
0.483219
20
0.061791
0
VERTEX
8
0
10
0.485259
20
0.060699
0
VERTEX
8
0
10
0.487027
20
0.059248
0
VERTEX
8
0
10
0.488479
20
0.057480
0
VERTEX
8
0
10
0.489570
20
0.055439
0
VERTEX
8
0
10
0.490257
20
0.053170
0
VERTEX
8
0
10
0.490496
20
0.050717
0
SEQEND
8
0
0
POLYLINE
8
0
66
1
70
1
40
0
41
0
0
VERTEX
8
0
10
0.490496
20
-0.049283
0
VERTEX
8
0
10
0.490496
20
-0.065283
0
VERTEX
8
0
10
0.490257
20
-0.067737
0
VERTEX
8
0
10
0.489570
20
-0.070006
0
VERTEX
8
0
10
0.488479
20
-0.072046
0
VERTEX
8
0
10
0.487027
20
-0.073815
0
VERTEX
8
0
10
0.485259
20
-0.075266
0
VERTEX
8
0
10
0.483219
20
-0.076357
0
VERTEX
8
0
10
0.480950
20
-0.077044
0
VERTEX
8
0
10
0.478496
20
-0.077283
0
VERTEX
8
0
10
0.422496
20
-0.077283
0
VERTEX
8
0
10
0.420043
20
-0.077044
0
VERTEX
8
0
10
0.417773
20
-0.076357
0
VERTEX
8
0
10
0.415733
20
-0.075266
0
VERTEX
8
0
10
0.413965
20
-0.073815
0
VERTEX
8
0
10
0.412513
20
-0.072046
0
VERTEX
8
0
10
0.411422
20
-0.070006
0
VERTEX
8
0
10
0.410735
20
-0.067737
0
VERTEX
8
0
10
0.410496
20
-0.065283
0
VERTEX
8
0
10
0.410496
20
-0.049283
0
VERTEX
8
0
10
0.410735
20
-0.046830
0
VERTEX
8
0
10
0.411422
20
-0.044561
0
VERTEX
8
0
10
0.412513
20
-0.042520
0
VERTEX
8
0
10
0.413965
20
-0.040752
0
VERTEX
8
0
10
0.415733
20
-0.039301
0
VERTEX
8
0
10
0.417773
20
-0.038209
0
VERTEX
8
0
10
0.420043
20
-0.037522
0
VERTEX
8
0
10
0.422496
20
-0.037283
0
VERTEX
8
0
10
0.478496
20
-0.037283
0
VERTEX
8
0
10
0.480950
20
-0.037522
0
VERTEX
8
0
10
0.483219
20
-0.038209
0
VERTEX
8
0
10
0.485259
20
-0.039301
0
VERTEX
8
0
10
0.487027
20
-0.040752
0
VERTEX
8
0
10
0.488479
20
-0.042520
0
VERTEX
8
0
10
0.489570
20
-0.044561
0
VERTEX
8
0
10
0.490257
20
-0.046830
0
VERTEX
8
0
10
0.490496
20
-0.049283
0
SEQEND
8
0
0
POLYLINE
8
0
66
1
70
1
40
0
41
0
0
VERTEX
8
0
10
0.490496
20
-0.149283
0
VERTEX
8
0
10
0.490496
20
-0.165283
0
VERTEX
8
0
10
0.490257
20
-0.167737
0
VERTEX
8
0
10
0.489570
20
-0.170006
0
VERTEX
8
0
10
0.488479
20
-0.172046
0
VERTEX
8
0
10
0.487027
20
-0.173815
0
VERTEX
8
0
10
0.485259
20
-0.175266
0
VERTEX
8
0
10
0.483219
20
-0.176357
0
VERTEX
8
0
10
0.480950
20
-0.177044
0
VERTEX
8
0
10
0.478496
20
-0.177283
0
VERTEX
8
0
10
0.422496
20
-0.177283
0
VERTEX
8
0
10
0.420043
20
-0.177044
0
VERTEX
8
0
10
0.417773
20
-0.176357
0
VERTEX
8
0
10
0.415733
20
-0.175266
0
VERTEX
8
0
10
0.413965
20
-0.173815
0
VERTEX
8
0
10
0.412513
20
-0.172046
0
VERTEX
8
0
10
0.411422
20
-0.170006
0
VERTEX
8
0
10
0.410735
20
-0.167737
0
VERTEX
8
0
10
0.410496
20
-0.165283
0
VERTEX
8
0
10
0.410496
20
-0.149283
0
VERTEX
8
0
10
0.410735
20
-0.146830
0
VERTEX
8
0
10
0.411422
20
-0.144561
0
VERTEX
8
0
10
0.412513
20
-0.142520
0
VERTEX
8
0
10
0.413965
20
-0.140752
0
VERTEX
8
0
10
0.415733
20
-0.139301
0
VERTEX
8
0
10
0.417773
20
-0.138209
0
VERTEX
8
0
10
0.420043
20
-0.137522
0
VERTEX
8
0
10
0.422496
20
-0.137283
0
VERTEX
8
0
10
0.478496
20
-0.137283
0
VERTEX
8
0
10
0.480950
20
-0.137522
0
VERTEX
8
0
10
0.483219
20
-0.138209
0
VERTEX
8
0
10
0.485259
20
-0.139301
0
VERTEX
8
0
10
0.487027
20
-0.140752
0
VERTEX
8
0
10
0.488479
20
-0.142520
0
VERTEX
8
0
10
0.489570
20
-0.144561
0
VERTEX
8
0
10
0.490257
20
-0.146830
0
VERTEX
8
0
10
0.490496
20
-0.149283
0
SEQEND
8
0
0
POLYLINE
8
0
66
1
40
0.008000
41
0.008000
0
VERTEX
8
0
10
-0.531496
20
-1.269094
0
VERTEX
8
0
10
0.531496
20
-1.269094
0
VERTEX
8
0
10
0.531496
20
1.269094
0
VERTEX
8
0
10
-0.531496
20
1.269094
0
VERTEX
8
0
10
-0.531496
20
-1.269094
0
SEQEND
8
0
0
TEXT
8
0
10
0.406000
20
0.982000
40
0.032000
41
1.250000
1
VP
0
TEXT
8
0
10
0.406000
20
0.881000
40
0.032000
41
1.250000
1
VN
0
TEXT
8
0
10
0.386000
20
0.778000
40
0.032000
41
1.250000
1
RST
0
TEXT
8
0
10
0.366000
20
0.675000
40
0.032000
41
1.250000
1
IO34
0
TEXT
8
0
10
0.366000
20
0.575000
40
0.032000
41
1.250000
1
IO35
0
TEXT
8
0
10
0.172000
20
0.475000
40
0.032000
41
1.250000
1
SCLK_IO14
0
TEXT
8
0
10
0.365000
20
0.377000
40
0.032000
41
1.250000
1
IO12
0
TEXT
8
0
10
0.226000
20
0.281000
40
0.032000
41
1.250000
1
CS_IO13
0
TEXT
8
0
10
0.162000
20
0.177000
40
0.032000
41
1.250000
1
MOSI_IO15
0
TEXT
8
0
10
0.200000
20
0.077000
40
0.032000
41
1.250000
1
MISO_IO2
0
TEXT
8
0
10
0.386000
20
-0.024000
40
0.032000
41
1.250000
1
IO0
0
TEXT
8
0
10
0.386000
20
-0.126000
40
0.032000
41
1.250000
1
IO4
0
TEXT
8
0
10
0.205000
20
-0.232000
40
0.032000
41
1.250000
1
LED_IO25
0
TEXT
8
0
10
-0.494500
20
0.980000
40
0.032000
41
1.250000
1
IO21_SDA
0
TEXT
8
0
10
-0.489500
20
0.879000
40
0.032000
41
1.250000
1
TXD
0
TEXT
8
0
10
-0.489500
20
0.771000
40
0.032000
41
1.250000
1
RXD
0
TEXT
8
0
10
-0.494500
20
0.675000
40
0.032000
41
1.250000
1
IO22_SCL
0
TEXT
8
0
10
-0.494500
20
0.575000
40
0.032000
41
1.250000
1
IO23_LORA_RST
0
TEXT
8
0
10
-0.494500
20
0.475000
40
0.032000
41
1.250000
1
IO19_LORA_MISO
0
TEXT
8
0
10
-0.514500
20
0.374000
40
0.032000
41
1.250000
1
LORA2
0
TEXT
8
0
10
-0.514500
20
0.276000
40
0.032000
41
1.250000
1
LORA1
0
TEXT
8
0
10
-0.494500
20
0.174000
40
0.032000
41
1.250000
1
IO26_LORA_DIO
0
TEXT
8
0
10
-0.474500
20
0.077000
40
0.032000
41
1.250000
1
GND
0
TEXT
8
0
10
-0.474500
20
-0.024000
40
0.032000
41
1.250000
1
3V3
0
TEXT
8
0
10
-0.474500
20
-0.124000
40
0.032000
41
1.250000
1
GND
0
TEXT
8
0
10
-0.479500
20
-0.226000
40
0.032000
41
1.250000
1
5V
0
POLYLINE
8
0
66
1
40
0.008000
41
0.008000
0
VERTEX
8
0
10
0.287000
20
-0.894000
0
VERTEX
8
0
10
0.745000
20
-0.894000
0
VERTEX
8
0
10
0.745000
20
-0.681000
0
VERTEX
8
0
10
0.287000
20
-0.681000
0
VERTEX
8
0
10
0.287000
20
-0.894000
0
SEQEND
8
0
0
POLYLINE
8
0
66
1
40
0.008000
41
0.008000
0
VERTEX
8
0
10
-0.414000
20
-1.280000
0
VERTEX
8
0
10
-0.141000
20
-1.280000
0
VERTEX
8
0
10
-0.141000
20
-1.091000
0
VERTEX
8
0
10
-0.414000
20
-1.091000
0
VERTEX
8
0
10
-0.414000
20
-1.280000
0
SEQEND
8
0
0
POLYLINE
8
0
66
1
40
0.008000
41
0.008000
0
VERTEX
8
0
10
0.044000
20
-1.272000
0
VERTEX
8
0
10
0.469000
20
-1.272000
0
VERTEX
8
0
10
0.469000
20
-1.094000
0
VERTEX
8
0
10
0.044000
20
-1.094000
0
VERTEX
8
0
10
0.044000
20
-1.272000
0
SEQEND
8
0
0
CIRCLE
8
0
10
0.359000
20
-0.738000
40
0.023000
0
CIRCLE
8
0
10
0.483000
20
-0.738000
40
0.023000
0
CIRCLE
8
0
10
0.418000
20
-0.800000
40
0.023000
0
CIRCLE
8
0
10
0.356000
20
-0.849000
40
0.023000
0
CIRCLE
8
0
10
0.483000
20
-0.847000
40
0.023000
0
TEXT
8
0
10
-0.328000
20
-1.207000
40
0.032000
41
1.250000
1
USB
0
TEXT
8
0
10
0.155000
20
-1.199000
40
0.032000
41
1.250000
1
SDCARD
0
INSERT
8
0
2
EPAD
10
-0.396063
20
1.166929
41
0.100000
42
0.100000
0
CIRCLE
8
0
10
-0.396063
20
1.166929
40
0.010000
0
INSERT
8
0
2
EPAD
10
0.470079
20
1.166929
41
0.100000
42
0.100000
0
CIRCLE
8
0
10
0.470079
20
1.166929
40
0.010000
0
POLYLINE
8
0
66
1
70
1
40
0
41
0
0
VERTEX
8
0
10
-0.402913
20
1.050717
0
VERTEX
8
0
10
-0.402913
20
1.034716
0
VERTEX
8
0
10
-0.403152
20
1.032263
0
VERTEX
8
0
10
-0.403839
20
1.029994
0
VERTEX
8
0
10
-0.404930
20
1.027954
0
VERTEX
8
0
10
-0.406382
20
1.026185
0
VERTEX
8
0
10
-0.408150
20
1.024734
0
VERTEX
8
0
10
-0.410191
20
1.023643
0
VERTEX
8
0
10
-0.412460
20
1.022956
0
VERTEX
8
0
10
-0.414913
20
1.022717
0
VERTEX
8
0
10
-0.470913
20
1.022717
0
VERTEX
8
0
10
-0.473367
20
1.022956
0
VERTEX
8
0
10
-0.475636
20
1.023643
0
VERTEX
8
0
10
-0.477676
20
1.024734
0
VERTEX
8
0
10
-0.479444
20
1.026185
0
VERTEX
8
0
10
-0.480896
20
1.027954
0
VERTEX
8
0
10
-0.481988
20
1.029994
0
VERTEX
8
0
10
-0.482675
20
1.032263
0
VERTEX
8
0
10
-0.482913
20
1.034716
0
VERTEX
8
0
10
-0.482913
20
1.050717
0
VERTEX
8
0
10
-0.482675
20
1.053170
0
VERTEX
8
0
10
-0.481988
20
1.055439
0
VERTEX
8
0
10
-0.480896
20
1.057480
0
VERTEX
8
0
10
-0.479444
20
1.059248
0
VERTEX
8
0
10
-0.477676
20
1.060699
0
VERTEX
8
0
10
-0.475636
20
1.061791
0
VERTEX
8
0
10
-0.473367
20
1.062478
0
VERTEX
8
0
10
-0.470913
20
1.062716
0
VERTEX
8
0
10
-0.414913
20
1.062716
0
VERTEX
8
0
10
-0.412460
20
1.062478
0
VERTEX
8
0
10
-0.410191
20
1.061791
0
VERTEX
8
0
10
-0.408150
20
1.060699
0
VERTEX
8
0
10
-0.406382
20
1.059248
0
VERTEX
8
0
10
-0.404930
20
1.057480
0
VERTEX
8
0
10
-0.403839
20
1.055439
0
VERTEX
8
0
10
-0.403152
20
1.053170
0
VERTEX
8
0
10
-0.402913
20
1.050717
0
SEQEND
8
0
0
CIRCLE
8
0
10
-0.442913
20
1.042717
40
0.010000
0
POLYLINE
8
0
66
1
70
1
40
0
41
0
0
VERTEX
8
0
10
-0.402913
20
0.950717
0
VERTEX
8
0
10
-0.402913
20
0.934717
0
VERTEX
8
0
10
-0.403152
20
0.932263
0
VERTEX
8
0
10
-0.403839
20
0.929994
0
VERTEX
8
0
10
-0.404930
20
0.927954
0
VERTEX
8
0
10
-0.406382
20
0.926185
0
VERTEX
8
0
10
-0.408150
20
0.924734
0
VERTEX
8
0
10
-0.410191
20
0.923643
0
VERTEX
8
0
10
-0.412460
20
0.922956
0
VERTEX
8
0
10
-0.414913
20
0.922717
0
VERTEX
8
0
10
-0.470913
20
0.922717
0
VERTEX
8
0
10
-0.473367
20
0.922956
0
VERTEX
8
0
10
-0.475636
20
0.923643
0
VERTEX
8
0
10
-0.477676
20
0.924734
0
VERTEX
8
0
10
-0.479444
20
0.926185
0
VERTEX
8
0
10
-0.480896
20
0.927954
0
VERTEX
8
0
10
-0.481988
20
0.929994
0
VERTEX
8
0
10
-0.482675
20
0.932263
0
VERTEX
8
0
10
-0.482913
20
0.934717
0
VERTEX
8
0
10
-0.482913
20
0.950717
0
VERTEX
8
0
10
-0.482675
20
0.953170
0
VERTEX
8
0
10
-0.481988
20
0.955439
0
VERTEX
8
0
10
-0.480896
20
0.957480
0
VERTEX
8
0
10
-0.479444
20
0.959248
0
VERTEX
8
0
10
-0.477676
20
0.960699
0
VERTEX
8
0
10
-0.475636
20
0.961791
0
VERTEX
8
0
10
-0.473367
20
0.962478
0
VERTEX
8
0
10
-0.470913
20
0.962717
0
VERTEX
8
0
10
-0.414913
20
0.962717
0
VERTEX
8
0
10
-0.412460
20
0.962478
0
VERTEX
8
0
10
-0.410191
20
0.961791
0
VERTEX
8
0
10
-0.408150
20
0.960699
0
VERTEX
8
0
10
-0.406382
20
0.959248
0
VERTEX
8
0
10
-0.404930
20
0.957480
0
VERTEX
8
0
10
-0.403839
20
0.955439
0
VERTEX
8
0
10
-0.403152
20
0.953170
0
VERTEX
8
0
10
-0.402913
20
0.950717
0
SEQEND
8
0
0
CIRCLE
8
0
10
-0.442913
20
0.942717
40
0.010000
0
POLYLINE
8
0
66
1
70
1
40
0
41
0
0
VERTEX
8
0
10
-0.402913
20
0.850717
0
VERTEX
8
0
10
-0.402913
20
0.834717
0
VERTEX
8
0
10
-0.403152
20
0.832263
0
VERTEX
8
0
10
-0.403839
20
0.829994
0
VERTEX
8
0
10
-0.404930
20
0.827954
0
VERTEX
8
0
10
-0.406382
20
0.826185
0
VERTEX
8
0
10
-0.408150
20
0.824734
0
VERTEX
8
0
10
-0.410191
20
0.823642
0
VERTEX
8
0
10
-0.412460
20
0.822955
0
VERTEX
8
0
10
-0.414913
20
0.822717
0
VERTEX
8
0
10
-0.470913
20
0.822717
0
VERTEX
8
0
10
-0.473367
20
0.822955
0
VERTEX
8
0
10
-0.475636
20
0.823642
0
VERTEX
8
0
10
-0.477676
20
0.824734
0
VERTEX
8
0
10
-0.479444
20
0.826185
0
VERTEX
8
0
10
-0.480896
20
0.827954
0
VERTEX
8
0
10
-0.481988
20
0.829994
0
VERTEX
8
0
10
-0.482675
20
0.832263
0
VERTEX
8
0
10
-0.482913
20
0.834717
0
VERTEX
8
0
10
-0.482913
20
0.850717
0
VERTEX
8
0
10
-0.482675
20
0.853170
0
VERTEX
8
0
10
-0.481988
20
0.855439
0
VERTEX
8
0
10
-0.480896
20
0.857480
0
VERTEX
8
0
10
-0.479444
20
0.859248
0
VERTEX
8
0
10
-0.477676
20
0.860699
0
VERTEX
8
0
10
-0.475636
20
0.861791
0
VERTEX
8
0
10
-0.473367
20
0.862478
0
VERTEX
8
0
10
-0.470913
20
0.862717
0
VERTEX
8
0
10
-0.414913
20
0.862717
0
VERTEX
8
0
10
-0.412460
20
0.862478
0
VERTEX
8
0
10
-0.410191
20
0.861791
0
VERTEX
8
0
10
-0.408150
20
0.860699
0
VERTEX
8
0
10
-0.406382
20
0.859248
0
VERTEX
8
0
10
-0.404930
20
0.857480
0
VERTEX
8
0
10
-0.403839
20
0.855439
0
VERTEX
8
0
10
-0.403152
20
0.853170
0
VERTEX
8
0
10
-0.402913
20
0.850717
0
SEQEND
8
0
0
CIRCLE
8
0
10
-0.442913
20
0.842717
40
0.010000
0
POLYLINE
8
0
66
1
70
1
40
0
41
0
0
VERTEX
8
0
10
-0.402913
20
0.750717
0
VERTEX
8
0
10
-0.402913
20
0.734717
0
VERTEX
8
0
10
-0.403152
20
0.732263
0
VERTEX
8
0
10
-0.403839
20
0.729994
0
VERTEX
8
0
10
-0.404930
20
0.727954
0
VERTEX
8
0
10
-0.406382
20
0.726185
0
VERTEX
8
0
10
-0.408150
20
0.724734
0
VERTEX
8
0
10
-0.410191
20
0.723643
0
VERTEX
8
0
10
-0.412460
20
0.722956
0
VERTEX
8
0
10
-0.414913
20
0.722717
0
VERTEX
8
0
10
-0.470913
20
0.722717
0
VERTEX
8
0
10
-0.473367
20
0.722956
0
VERTEX
8
0
10
-0.475636
20
0.723643
0
VERTEX
8
0
10
-0.477676
20
0.724734
0
VERTEX
8
0
10
-0.479444
20
0.726185
0
VERTEX
8
0
10
-0.480896
20
0.727954
0
VERTEX
8
0
10
-0.481988
20
0.729994
0
VERTEX
8
0
10
-0.482675
20
0.732263
0
VERTEX
8
0
10
-0.482913
20
0.734717
0
VERTEX
8
0
10
-0.482913
20
0.750717
0
VERTEX
8
0
10
-0.482675
20
0.753170
0
VERTEX
8
0
10
-0.481988
20
0.755439
0
VERTEX
8
0
10
-0.480896
20
0.757480
0
VERTEX
8
0
10
-0.479444
20
0.759248
0
VERTEX
8
0
10
-0.477676
20
0.760699
0
VERTEX
8
0
10
-0.475636
20
0.761791
0
VERTEX
8
0
10
-0.473367
20
0.762478
0
VERTEX
8
0
10
-0.470913
20
0.762717
0
VERTEX
8
0
10
-0.414913
20
0.762717
0
VERTEX
8
0
10
-0.412460
20
0.762478
0
VERTEX
8
0
10
-0.410191
20
0.761791
0
VERTEX
8
0
10
-0.408150
20
0.760699
0
VERTEX
8
0
10
-0.406382
20
0.759248
0
VERTEX
8
0
10
-0.404930
20
0.757480
0
VERTEX
8
0
10
-0.403839
20
0.755439
0
VERTEX
8
0
10
-0.403152
20
0.753170
0
VERTEX
8
0
10
-0.402913
20
0.750717
0
SEQEND
8
0
0
CIRCLE
8
0
10
-0.442913
20
0.742717
40
0.010000
0
POLYLINE
8
0
66
1
70
1
40
0
41
0
0
VERTEX
8
0
10
-0.402913
20
0.650717
0
VERTEX
8
0
10
-0.402913
20
0.634717
0
VERTEX
8
0
10
-0.403152
20
0.632263
0
VERTEX
8
0
10
-0.403839
20
0.629994
0
VERTEX
8
0
10
-0.404930
20
0.627954
0
VERTEX
8
0
10
-0.406382
20
0.626185
0
VERTEX
8
0
10
-0.408150
20
0.624734
0
VERTEX
8
0
10
-0.410191
20
0.623643
0
VERTEX
8
0
10
-0.412460
20
0.622956
0
VERTEX
8
0
10
-0.414913
20
0.622717
0
VERTEX
8
0
10
-0.470913
20
0.622717
0
VERTEX
8
0
10
-0.473367
20
0.622956
0
VERTEX
8
0
10
-0.475636
20
0.623643
0
VERTEX
8
0
10
-0.477676
20
0.624734
0
VERTEX
8
0
10
-0.479444
20
0.626185
0
VERTEX
8
0
10
-0.480896
20
0.627954
0
VERTEX
8
0
10
-0.481988
20
0.629994
0
VERTEX
8
0
10
-0.482675
20
0.632263
0
VERTEX
8
0
10
-0.482913
20
0.634717
0
VERTEX
8
0
10
-0.482913
20
0.650717
0
VERTEX
8
0
10
-0.482675
20
0.653170
0
VERTEX
8
0
10
-0.481988
20
0.655439
0
VERTEX
8
0
10
-0.480896
20
0.657480
0
VERTEX
8
0
10
-0.479444
20
0.659248
0
VERTEX
8
0
10
-0.477676
20
0.660699
0
VERTEX
8
0
10
-0.475636
20
0.661791
0
VERTEX
8
0
10
-0.473367
20
0.662478
0
VERTEX
8
0
10
-0.470913
20
0.662717
0
VERTEX
8
0
10
-0.414913
20
0.662717
0
VERTEX
8
0
10
-0.412460
20
0.662478
0
VERTEX
8
0
10
-0.410191
20
0.661791
0
VERTEX
8
0
10
-0.408150
20
0.660699
0
VERTEX
8
0
10
-0.406382
20
0.659248
0
VERTEX
8
0
10
-0.404930
20
0.657480
0
VERTEX
8
0
10
-0.403839
20
0.655439
0
VERTEX
8
0
10
-0.403152
20
0.653170
0
VERTEX
8
0
10
-0.402913
20
0.650717
0
SEQEND
8
0
0
CIRCLE
8
0
10
-0.442913
20
0.642717
40
0.010000
0
POLYLINE
8
0
66
1
70
1
40
0
41
0
0
VERTEX
8
0
10
-0.402913
20
0.550717
0
VERTEX
8
0
10
-0.402913
20
0.534717
0
VERTEX
8
0
10
-0.403152
20
0.532263
0
VERTEX
8
0
10
-0.403839
20
0.529994
0
VERTEX
8
0
10
-0.404930
20
0.527954
0
VERTEX
8
0
10
-0.406382
20
0.526185
0
VERTEX
8
0
10
-0.408150
20
0.524734
0
VERTEX
8
0
10
-0.410191
20
0.523643
0
VERTEX
8
0
10
-0.412460
20
0.522956
0
VERTEX
8
0
10
-0.414913
20
0.522717
0
VERTEX
8
0
10
-0.470913
20
0.522717
0
VERTEX
8
0
10
-0.473367
20
0.522956
0
VERTEX
8
0
10
-0.475636
20
0.523643
0
VERTEX
8
0
10
-0.477676
20
0.524734
0
VERTEX
8
0
10
-0.479444
20
0.526185
0
VERTEX
8
0
10
-0.480896
20
0.527954
0
VERTEX
8
0
10
-0.481988
20
0.529994
0
VERTEX
8
0
10
-0.482675
20
0.532263
0
VERTEX
8
0
10
-0.482913
20
0.534717
0
VERTEX
8
0
10
-0.482913
20
0.550717
0
VERTEX
8
0
10
-0.482675
20
0.553170
0
VERTEX
8
0
10
-0.481988
20
0.555439
0
VERTEX
8
0
10
-0.480896
20
0.557480
0
VERTEX
8
0
10
-0.479444
20
0.559248
0
VERTEX
8
0
10
-0.477676
20
0.560699
0
VERTEX
8
0
10
-0.475636
20
0.561791
0
VERTEX
8
0
10
-0.473367
20
0.562478
0
VERTEX
8
0
10
-0.470913
20
0.562717
0
VERTEX
8
0
10
-0.414913
20
0.562717
0
VERTEX
8
0
10
-0.412460
20
0.562478
0
VERTEX
8
0
10
-0.410191
20
0.561791
0
VERTEX
8
0
10
-0.408150
20
0.560699
0
VERTEX
8
0
10
-0.406382
20
0.559248
0
VERTEX
8
0
10
-0.404930
20
0.557480
0
VERTEX
8
0
10
-0.403839
20
0.555439
0
VERTEX
8
0
10
-0.403152
20
0.553170
0
VERTEX
8
0
10
-0.402913
20
0.550717
0
SEQEND
8
0
0
CIRCLE
8
0
10
-0.442913
20
0.542717
40
0.010000
0
POLYLINE
8
0
66
1
70
1
40
0
41
0
0
VERTEX
8
0
10
-0.402913
20
0.450717
0
VERTEX
8
0
10
-0.402913
20
0.434717
0
VERTEX
8
0
10
-0.403152
20
0.432263
0
VERTEX
8
0
10
-0.403839
20
0.429994
0
VERTEX
8
0
10
-0.404930
20
0.427954
0
VERTEX
8
0
10
-0.406382
20
0.426185
0
VERTEX
8
0
10
-0.408150
20
0.424734
0
VERTEX
8
0
10
-0.410191
20
0.423643
0
VERTEX
8
0
10
-0.412460
20
0.422956
0
VERTEX
8
0
10
-0.414913
20
0.422717
0
VERTEX
8
0
10
-0.470913
20
0.422717
0
VERTEX
8
0
10
-0.473367
20
0.422956
0
VERTEX
8
0
10
-0.475636
20
0.423643
0
VERTEX
8
0
10
-0.477676
20
0.424734
0
VERTEX
8
0
10
-0.479444
20
0.426185
0
VERTEX
8
0
10
-0.480896
20
0.427954
0
VERTEX
8
0
10
-0.481988
20
0.429994
0
VERTEX
8
0
10
-0.482675
20
0.432263
0
VERTEX
8
0
10
-0.482913
20
0.434717
0
VERTEX
8
0
10
-0.482913
20
0.450717
0
VERTEX
8
0
10
-0.482675
20
0.453170
0
VERTEX
8
0
10
-0.481988
20
0.455439
0
VERTEX
8
0
10
-0.480896
20
0.457480
0
VERTEX
8
0
10
-0.479444
20
0.459248
0
VERTEX
8
0
10
-0.477676
20
0.460699
0
VERTEX
8
0
10
-0.475636
20
0.461791
0
VERTEX
8
0
10
-0.473367
20
0.462478
0
VERTEX
8
0
10
-0.470913
20
0.462717
0
VERTEX
8
0
10
-0.414913
20
0.462717
0
VERTEX
8
0
10
-0.412460
20
0.462478
0
VERTEX
8
0
10
-0.410191
20
0.461791
0
VERTEX
8
0
10
-0.408150
20
0.460699
0
VERTEX
8
0
10
-0.406382
20
0.459248
0
VERTEX
8
0
10
-0.404930
20
0.457480
0
VERTEX
8
0
10
-0.403839
20
0.455439
0
VERTEX
8
0
10
-0.403152
20
0.453170
0
VERTEX
8
0
10
-0.402913
20
0.450717
0
SEQEND
8
0
0
CIRCLE
8
0
10
-0.442913
20
0.442717
40
0.010000
0
POLYLINE
8
0
66
1
70
1
40
0
41
0
0
VERTEX
8
0
10
-0.402913
20
0.350717
0
VERTEX
8
0
10
-0.402913
20
0.334717
0
VERTEX
8
0
10
-0.403152
20
0.332263
0
VERTEX
8
0
10
-0.403839
20
0.329994
0
VERTEX
8
0
10
-0.404930
20
0.327954
0
VERTEX
8
0
10
-0.406382
20
0.326185
0
VERTEX
8
0
10
-0.408150
20
0.324734
0
VERTEX
8
0
10
-0.410191
20
0.323643
0
VERTEX
8
0
10
-0.412460
20
0.322956
0
VERTEX
8
0
10
-0.414913
20
0.322717
0
VERTEX
8
0
10
-0.470913
20
0.322717
0
VERTEX
8
0
10
-0.473367
20
0.322956
0
VERTEX
8
0
10
-0.475636
20
0.323643
0
VERTEX
8
0
10
-0.477676
20
0.324734
0
VERTEX
8
0
10
-0.479444
20
0.326185
0
VERTEX
8
0
10
-0.480896
20
0.327954
0
VERTEX
8
0
10
-0.481988
20
0.329994
0
VERTEX
8
0
10
-0.482675
20
0.332263
0
VERTEX
8
0
10
-0.482913
20
0.334717
0
VERTEX
8
0
10
-0.482913
20
0.350717
0
VERTEX
8
0
10
-0.482675
20
0.353170
0
VERTEX
8
0
10
-0.481988
20
0.355439
0
VERTEX
8
0
10
-0.480896
20
0.357480
0
VERTEX
8
0
10
-0.479444
20
0.359248
0
VERTEX
8
0
10
-0.477676
20
0.360699
0
VERTEX
8
0
10
-0.475636
20
0.361791
0
VERTEX
8
0
10
-0.473367
20
0.362478
0
VERTEX
8
0
10
-0.470913
20
0.362717
0
VERTEX
8
0
10
-0.414913
20
0.362717
0
VERTEX
8
0
10
-0.412460
20
0.362478
0
VERTEX
8
0
10
-0.410191
20
0.361791
0
VERTEX
8
0
10
-0.408150
20
0.360699
0
VERTEX
8
0
10
-0.406382
20
0.359248
0
VERTEX
8
0
10
-0.404930
20
0.357480
0
VERTEX
8
0
10
-0.403839
20
0.355439
0
VERTEX
8
0
10
-0.403152
20
0.353170
0
VERTEX
8
0
10
-0.402913
20
0.350717
0
SEQEND
8
0
0
CIRCLE
8
0
10
-0.442913
20
0.342717
40
0.010000
0
POLYLINE
8
0
66
1
70
1
40
0
41
0
0
VERTEX
8
0
10
-0.402913
20
0.250717
0
VERTEX
8
0
10
-0.402913
20
0.234717
0
VERTEX
8
0
10
-0.403152
20
0.232263
0
VERTEX
8
0
10
-0.403839
20
0.229994
0
VERTEX
8
0
10
-0.404930
20
0.227954
0
VERTEX
8
0
10
-0.406382
20
0.226185
0
VERTEX
8
0
10
-0.408150
20
0.224734
0
VERTEX
8
0
10
-0.410191
20
0.223643
0
VERTEX
8
0
10
-0.412460
20
0.222956
0
VERTEX
8
0
10
-0.414913
20
0.222717
0
VERTEX
8
0
10
-0.470913
20
0.222717
0
VERTEX
8
0
10
-0.473367
20
0.222956
0
VERTEX
8
0
10
-0.475636
20
0.223643
0
VERTEX
8
0
10
-0.477676
20
0.224734
0
VERTEX
8
0
10
-0.479444
20
0.226185
0
VERTEX
8
0
10
-0.480896
20
0.227954
0
VERTEX
8
0
10
-0.481988
20
0.229994
0
VERTEX
8
0
10
-0.482675
20
0.232263
0
VERTEX
8
0
10
-0.482913
20
0.234717
0
VERTEX
8
0
10
-0.482913
20
0.250717
0
VERTEX
8
0
10
-0.482675
20
0.253170
0
VERTEX
8
0
10
-0.481988
20
0.255439
0
VERTEX
8
0
10
-0.480896
20
0.257480
0
VERTEX
8
0
10
-0.479444
20
0.259248
0
VERTEX
8
0
10
-0.477676
20
0.260699
0
VERTEX
8
0
10
-0.475636
20
0.261791
0
VERTEX
8
0
10
-0.473367
20
0.262478
0
VERTEX
8
0
10
-0.470913
20
0.262717
0
VERTEX
8
0
10
-0.414913
20
0.262717
0
VERTEX
8
0
10
-0.412460
20
0.262478
0
VERTEX
8
0
10
-0.410191
20
0.261791
0
VERTEX
8
0
10
-0.408150
20
0.260699
0
VERTEX
8
0
10
-0.406382
20
0.259248
0
VERTEX
8
0
10
-0.404930
20
0.257480
0
VERTEX
8
0
10
-0.403839
20
0.255439
0
VERTEX
8
0
10
-0.403152
20
0.253170
0
VERTEX
8
0
10
-0.402913
20
0.250717
0
SEQEND
8
0
0
CIRCLE
8
0
10
-0.442913
20
0.242717
40
0.010000
0
POLYLINE
8
0
66
1
70
1
40
0
41
0
0
VERTEX
8
0
10
-0.402913
20
0.150717
0
VERTEX
8
0
10
-0.402913
20
0.134717
0
VERTEX
8
0
10
-0.403152
20
0.132263
0
VERTEX
8
0
10
-0.403839
20
0.129994
0
VERTEX
8
0
10
-0.404930
20
0.127954
0
VERTEX
8
0
10
-0.406382
20
0.126185
0
VERTEX
8
0
10
-0.408150
20
0.124734
0
VERTEX
8
0
10
-0.410191
20
0.123643
0
VERTEX
8
0
10
-0.412460
20
0.122956
0
VERTEX
8
0
10
-0.414913
20
0.122717
0
VERTEX
8
0
10
-0.470913
20
0.122717
0
VERTEX
8
0
10
-0.473367
20
0.122956
0
VERTEX
8
0
10
-0.475636
20
0.123643
0
VERTEX
8
0
10
-0.477676
20
0.124734
0
VERTEX
8
0
10
-0.479444
20
0.126185
0
VERTEX
8
0
10
-0.480896
20
0.127954
0
VERTEX
8
0
10
-0.481988
20
0.129994
0
VERTEX
8
0
10
-0.482675
20
0.132263
0
VERTEX
8
0
10
-0.482913
20
0.134717
0
VERTEX
8
0
10
-0.482913
20
0.150717
0
VERTEX
8
0
10
-0.482675
20
0.153170
0
VERTEX
8
0
10
-0.481988
20
0.155439
0
VERTEX
8
0
10
-0.480896
20
0.157480
0
VERTEX
8
0
10
-0.479444
20
0.159248
0
VERTEX
8
0
10
-0.477676
20
0.160699
0
VERTEX
8
0
10
-0.475636
20
0.161791
0
VERTEX
8
0
10
-0.473367
20
0.162478
0
VERTEX
8
0
10
-0.470913
20
0.162717
0
VERTEX
8
0
10
-0.414913
20
0.162717
0
VERTEX
8
0
10
-0.412460
20
0.162478
0
VERTEX
8
0
10
-0.410191
20
0.161791
0
VERTEX
8
0
10
-0.408150
20
0.160699
0
VERTEX
8
0
10
-0.406382
20
0.159248
0
VERTEX
8
0
10
-0.404930
20
0.157480
0
VERTEX
8
0
10
-0.403839
20
0.155439
0
VERTEX
8
0
10
-0.403152
20
0.153170
0
VERTEX
8
0
10
-0.402913
20
0.150717
0
SEQEND
8
0
0
CIRCLE
8
0
10
-0.442913
20
0.142717
40
0.010000
0
POLYLINE
8
0
66
1
70
1
40
0
41
0
0
VERTEX
8
0
10
-0.402913
20
0.050717
0
VERTEX
8
0
10
-0.402913
20
0.034717
0
VERTEX
8
0
10
-0.403152
20
0.032263
0
VERTEX
8
0
10
-0.403839
20
0.029994
0
VERTEX
8
0
10
-0.404930
20
0.027954
0
VERTEX
8
0
10
-0.406382
20
0.026185
0
VERTEX
8
0
10
-0.408150
20
0.024734
0
VERTEX
8
0
10
-0.410191
20
0.023643
0
VERTEX
8
0
10
-0.412460
20
0.022956
0
VERTEX
8
0
10
-0.414913
20
0.022717
0
VERTEX
8
0
10
-0.470913
20
0.022717
0
VERTEX
8
0
10
-0.473367
20
0.022956
0
VERTEX
8
0
10
-0.475636
20
0.023643
0
VERTEX
8
0
10
-0.477676
20
0.024734
0
VERTEX
8
0
10
-0.479444
20
0.026185
0
VERTEX
8
0
10
-0.480896
20
0.027954
0
VERTEX
8
0
10
-0.481988
20
0.029994
0
VERTEX
8
0
10
-0.482675
20
0.032263
0
VERTEX
8
0
10
-0.482913
20
0.034717
0
VERTEX
8
0
10
-0.482913
20
0.050717
0
VERTEX
8
0
10
-0.482675
20
0.053170
0
VERTEX
8
0
10
-0.481988
20
0.055439
0
VERTEX
8
0
10
-0.480896
20
0.057480
0
VERTEX
8
0
10
-0.479444
20
0.059248
0
VERTEX
8
0
10
-0.477676
20
0.060699
0
VERTEX
8
0
10
-0.475636
20
0.061791
0
VERTEX
8
0
10
-0.473367
20
0.062478
0
VERTEX
8
0
10
-0.470913
20
0.062717
0
VERTEX
8
0
10
-0.414913
20
0.062717
0
VERTEX
8
0
10
-0.412460
20
0.062478
0
VERTEX
8
0
10
-0.410191
20
0.061791
0
VERTEX
8
0
10
-0.408150
20
0.060699
0
VERTEX
8
0
10
-0.406382
20
0.059248
0
VERTEX
8
0
10
-0.404930
20
0.057480
0
VERTEX
8
0
10
-0.403839
20
0.055439
0
VERTEX
8
0
10
-0.403152
20
0.053170
0
VERTEX
8
0
10
-0.402913
20
0.050717
0
SEQEND
8
0
0
CIRCLE
8
0
10
-0.442913
20
0.042717
40
0.010000
0
POLYLINE
8
0
66
1
70
1
40
0
41
0
0
VERTEX
8
0
10
-0.402913
20
-0.049283
0
VERTEX
8
0
10
-0.402913
20
-0.065283
0
VERTEX
8
0
10
-0.403152
20
-0.067737
0
VERTEX
8
0
10
-0.403839
20
-0.070006
0
VERTEX
8
0
10
-0.404930
20
-0.072046
0
VERTEX
8
0
10
-0.406382
20
-0.073815
0
VERTEX
8
0
10
-0.408150
20
-0.075266
0
VERTEX
8
0
10
-0.410191
20
-0.076357
0
VERTEX
8
0
10
-0.412460
20
-0.077044
0
VERTEX
8
0
10
-0.414913
20
-0.077283
0
VERTEX
8
0
10
-0.470913
20
-0.077283
0
VERTEX
8
0
10
-0.473367
20
-0.077044
0
VERTEX
8
0
10
-0.475636
20
-0.076357
0
VERTEX
8
0
10
-0.477676
20
-0.075266
0
VERTEX
8
0
10
-0.479444
20
-0.073815
0
VERTEX
8
0
10
-0.480896
20
-0.072046
0
VERTEX
8
0
10
-0.481988
20
-0.070006
0
VERTEX
8
0
10
-0.482675
20
-0.067737
0
VERTEX
8
0
10
-0.482913
20
-0.065283
0
VERTEX
8
0
10
-0.482913
20
-0.049283
0
VERTEX
8
0
10
-0.482675
20
-0.046830
0
VERTEX
8
0
10
-0.481988
20
-0.044561
0
VERTEX
8
0
10
-0.480896
20
-0.042520
0
VERTEX
8
0
10
-0.479444
20
-0.040752
0
VERTEX
8
0
10
-0.477676
20
-0.039301
0
VERTEX
8
0
10
-0.475636
20
-0.038209
0
VERTEX
8
0
10
-0.473367
20
-0.037522
0
VERTEX
8
0
10
-0.470913
20
-0.037283
0
VERTEX
8
0
10
-0.414913
20
-0.037283
0
VERTEX
8
0
10
-0.412460
20
-0.037522
0
VERTEX
8
0
10
-0.410191
20
-0.038209
0
VERTEX
8
0
10
-0.408150
20
-0.039301
0
VERTEX
8
0
10
-0.406382
20
-0.040752
0
VERTEX
8
0
10
-0.404930
20
-0.042520
0
VERTEX
8
0
10
-0.403839
20
-0.044561
0
VERTEX
8
0
10
-0.403152
20
-0.046830
0
VERTEX
8
0
10
-0.402913
20
-0.049283
0
SEQEND
8
0
0
CIRCLE
8
0
10
-0.442913
20
-0.057283
40
0.010000
0
POLYLINE
8
0
66
1
70
1
40
0
41
0
0
VERTEX
8
0
10
-0.402913
20
-0.149283
0
VERTEX
8
0
10
-0.402913
20
-0.165283
0
VERTEX
8
0
10
-0.403152
20
-0.167737
0
VERTEX
8
0
10
-0.403839
20
-0.170006
0
VERTEX
8
0
10
-0.404930
20
-0.172046
0
VERTEX
8
0
10
-0.406382
20
-0.173815
0
VERTEX
8
0
10
-0.408150
20
-0.175266
0
VERTEX
8
0
10
-0.410191
20
-0.176357
0
VERTEX
8
0
10
-0.412460
20
-0.177044
0
VERTEX
8
0
10
-0.414913
20
-0.177283
0
VERTEX
8
0
10
-0.470913
20
-0.177283
0
VERTEX
8
0
10
-0.473367
20
-0.177044
0
VERTEX
8
0
10
-0.475636
20
-0.176357
0
VERTEX
8
0
10
-0.477676
20
-0.175266
0
VERTEX
8
0
10
-0.479444
20
-0.173815
0
VERTEX
8
0
10
-0.480896
20
-0.172046
0
VERTEX
8
0
10
-0.481988
20
-0.170006
0
VERTEX
8
0
10
-0.482675
20
-0.167737
0
VERTEX
8
0
10
-0.482913
20
-0.165283
0
VERTEX
8
0
10
-0.482913
20
-0.149283
0
VERTEX
8
0
10
-0.482675
20
-0.146830
0
VERTEX
8
0
10
-0.481988
20
-0.144561
0
VERTEX
8
0
10
-0.480896
20
-0.142520
0
VERTEX
8
0
10
-0.479444
20
-0.140752
0
VERTEX
8
0
10
-0.477676
20
-0.139301
0
VERTEX
8
0
10
-0.475636
20
-0.138209
0
VERTEX
8
0
10
-0.473367
20
-0.137522
0
VERTEX
8
0
10
-0.470913
20
-0.137283
0
VERTEX
8
0
10
-0.414913
20
-0.137283
0
VERTEX
8
0
10
-0.412460
20
-0.137522
0
VERTEX
8
0
10
-0.410191
20
-0.138209
0
VERTEX
8
0
10
-0.408150
20
-0.139301
0
VERTEX
8
0
10
-0.406382
20
-0.140752
0
VERTEX
8
0
10
-0.404930
20
-0.142520
0
VERTEX
8
0
10
-0.403839
20
-0.144561
0
VERTEX
8
0
10
-0.403152
20
-0.146830
0
VERTEX
8
0
10
-0.402913
20
-0.149283
0
SEQEND
8
0
0
CIRCLE
8
0
10
-0.442913
20
-0.157283
40
0.010000
0
POLYLINE
8
0
66
1
70
1
40
0
41
0
0
VERTEX
8
0
10
0.490496
20
1.050717
0
VERTEX
8
0
10
0.490496
20
1.034716
0
VERTEX
8
0
10
0.490257
20
1.032263
0
VERTEX
8
0
10
0.489570
20
1.029994
0
VERTEX
8
0
10
0.488479
20
1.027954
0
VERTEX
8
0
10
0.487027
20
1.026185
0
VERTEX
8
0
10
0.485259
20
1.024734
0
VERTEX
8
0
10
0.483219
20
1.023643
0
VERTEX
8
0
10
0.480950
20
1.022956
0
VERTEX
8
0
10
0.478496
20
1.022717
0
VERTEX
8
0
10
0.422496
20
1.022717
0
VERTEX
8
0
10
0.420043
20
1.022956
0
VERTEX
8
0
10
0.417773
20
1.023643
0
VERTEX
8
0
10
0.415733
20
1.024734
0
VERTEX
8
0
10
0.413965
20
1.026185
0
VERTEX
8
0
10
0.412513
20
1.027954
0
VERTEX
8
0
10
0.411422
20
1.029994
0
VERTEX
8
0
10
0.410735
20
1.032263
0
VERTEX
8
0
10
0.410496
20
1.034716
0
VERTEX
8
0
10
0.410496
20
1.050717
0
VERTEX
8
0
10
0.410735
20
1.053170
0
VERTEX
8
0
10
0.411422
20
1.055439
0
VERTEX
8
0
10
0.412513
20
1.057480
0
VERTEX
8
0
10
0.413965
20
1.059248
0
VERTEX
8
0
10
0.415733
20
1.060699
0
VERTEX
8
0
10
0.417773
20
1.061791
0
VERTEX
8
0
10
0.420043
20
1.062478
0
VERTEX
8
0
10
0.422496
20
1.062716
0
VERTEX
8
0
10
0.478496
20
1.062716
0
VERTEX
8
0
10
0.480950
20
1.062478
0
VERTEX
8
0
10
0.483219
20
1.061791
0
VERTEX
8
0
10
0.485259
20
1.060699
0
VERTEX
8
0
10
0.487027
20
1.059248
0
VERTEX
8
0
10
0.488479
20
1.057480
0
VERTEX
8
0
10
0.489570
20
1.055439
0
VERTEX
8
0
10
0.490257
20
1.053170
0
VERTEX
8
0
10
0.490496
20
1.050717
0
SEQEND
8
0
0
CIRCLE
8
0
10
0.450496
20
1.042717
40
0.010000
0
POLYLINE
8
0
66
1
70
1
40
0
41
0
0
VERTEX
8
0
10
0.490496
20
0.950717
0
VERTEX
8
0
10
0.490496
20
0.934717
0
VERTEX
8
0
10
0.490257
20
0.932263
0
VERTEX
8
0
10
0.489570
20
0.929994
0
VERTEX
8
0
10
0.488479
20
0.927954
0
VERTEX
8
0
10
0.487027
20
0.926185
0
VERTEX
8
0
10
0.485259
20
0.924734
0
VERTEX
8
0
10
0.483219
20
0.923643
0
VERTEX
8
0
10
0.480950
20
0.922956
0
VERTEX
8
0
10
0.478496
20
0.922717
0
VERTEX
8
0
10
0.422496
20
0.922717
0
VERTEX
8
0
10
0.420043
20
0.922956
0
VERTEX
8
0
10
0.417773
20
0.923643
0
VERTEX
8
0
10
0.415733
20
0.924734
0
VERTEX
8
0
10
0.413965
20
0.926185
0
VERTEX
8
0
10
0.412513
20
0.927954
0
VERTEX
8
0
10
0.411422
20
0.929994
0
VERTEX
8
0
10
0.410735
20
0.932263
0
VERTEX
8
0
10
0.410496
20
0.934717
0
VERTEX
8
0
10
0.410496
20
0.950717
0
VERTEX
8
0
10
0.410735
20
0.953170
0
VERTEX
8
0
10
0.411422
20
0.955439
0
VERTEX
8
0
10
0.412513
20
0.957480
0
VERTEX
8
0
10
0.413965
20
0.959248
0
VERTEX
8
0
10
0.415733
20
0.960699
0
VERTEX
8
0
10
0.417773
20
0.961791
0
VERTEX
8
0
10
0.420043
20
0.962478
0
VERTEX
8
0
10
0.422496
20
0.962717
0
VERTEX
8
0
10
0.478496
20
0.962717
0
VERTEX
8
0
10
0.480950
20
0.962478
0
VERTEX
8
0
10
0.483219
20
0.961791
0
VERTEX
8
0
10
0.485259
20
0.960699
0
VERTEX
8
0
10
0.487027
20
0.959248
0
VERTEX
8
0
10
0.488479
20
0.957480
0
VERTEX
8
0
10
0.489570
20
0.955439
0
VERTEX
8
0
10
0.490257
20
0.953170
0
VERTEX
8
0
10
0.490496
20
0.950717
0
SEQEND
8
0
0
CIRCLE
8
0
10
0.450496
20
0.942717
40
0.010000
0
POLYLINE
8
0
66
1
70
1
40
0
41
0
0
VERTEX
8
0
10
0.490496
20
0.850717
0
VERTEX
8
0
10
0.490496
20
0.834717
0
VERTEX
8
0
10
0.490257
20
0.832263
0
VERTEX
8
0
10
0.489570
20
0.829994
0
VERTEX
8
0
10
0.488479
20
0.827954
0
VERTEX
8
0
10
0.487027
20
0.826185
0
VERTEX
8
0
10
0.485259
20
0.824734
0
VERTEX
8
0
10
0.483219
20
0.823642
0
VERTEX
8
0
10
0.480950
20
0.822955
0
VERTEX
8
0
10
0.478496
20
0.822717
0
VERTEX
8
0
10
0.422496
20
0.822717
0
VERTEX
8
0
10
0.420043
20
0.822955
0
VERTEX
8
0
10
0.417773
20
0.823642
0
VERTEX
8
0
10
0.415733
20
0.824734
0
VERTEX
8
0
10
0.413965
20
0.826185
0
VERTEX
8
0
10
0.412513
20
0.827954
0
VERTEX
8
0
10
0.411422
20
0.829994
0
VERTEX
8
0
10
0.410735
20
0.832263
0
VERTEX
8
0
10
0.410496
20
0.834717
0
VERTEX
8
0
10
0.410496
20
0.850717
0
VERTEX
8
0
10
0.410735
20
0.853170
0
VERTEX
8
0
10
0.411422
20
0.855439
0
VERTEX
8
0
10
0.412513
20
0.857480
0
VERTEX
8
0
10
0.413965
20
0.859248
0
VERTEX
8
0
10
0.415733
20
0.860699
0
VERTEX
8
0
10
0.417773
20
0.861791
0
VERTEX
8
0
10
0.420043
20
0.862478
0
VERTEX
8
0
10
0.422496
20
0.862717
0
VERTEX
8
0
10
0.478496
20
0.862717
0
VERTEX
8
0
10
0.480950
20
0.862478
0
VERTEX
8
0
10
0.483219
20
0.861791
0
VERTEX
8
0
10
0.485259
20
0.860699
0
VERTEX
8
0
10
0.487027
20
0.859248
0
VERTEX
8
0
10
0.488479
20
0.857480
0
VERTEX
8
0
10
0.489570
20
0.855439
0
VERTEX
8
0
10
0.490257
20
0.853170
0
VERTEX
8
0
10
0.490496
20
0.850717
0
SEQEND
8
0
0
CIRCLE
8
0
10
0.450496
20
0.842717
40
0.010000
0
POLYLINE
8
0
66
1
70
1
40
0
41
0
0
VERTEX
8
0
10
0.490496
20
0.750717
0
VERTEX
8
0
10
0.490496
20
0.734717
0
VERTEX
8
0
10
0.490257
20
0.732263
0
VERTEX
8
0
10
0.489570
20
0.729994
0
VERTEX
8
0
10
0.488479
20
0.727954
0
VERTEX
8
0
10
0.487027
20
0.726185
0
VERTEX
8
0
10
0.485259
20
0.724734
0
VERTEX
8
0
10
0.483219
20
0.723643
0
VERTEX
8
0
10
0.480950
20
0.722956
0
VERTEX
8
0
10
0.478496
20
0.722717
0
VERTEX
8
0
10
0.422496
20
0.722717
0
VERTEX
8
0
10
0.420043
20
0.722956
0
VERTEX
8
0
10
0.417773
20
0.723643
0
VERTEX
8
0
10
0.415733
20
0.724734
0
VERTEX
8
0
10
0.413965
20
0.726185
0
VERTEX
8
0
10
0.412513
20
0.727954
0
VERTEX
8
0
10
0.411422
20
0.729994
0
VERTEX
8
0
10
0.410735
20
0.732263
0
VERTEX
8
0
10
0.410496
20
0.734717
0
VERTEX
8
0
10
0.410496
20
0.750717
0
VERTEX
8
0
10
0.410735
20
0.753170
0
VERTEX
8
0
10
0.411422
20
0.755439
0
VERTEX
8
0
10
0.412513
20
0.757480
0
VERTEX
8
0
10
0.413965
20
0.759248
0
VERTEX
8
0
10
0.415733
20
0.760699
0
VERTEX
8
0
10
0.417773
20
0.761791
0
VERTEX
8
0
10
0.420043
20
0.762478
0
VERTEX
8
0
10
0.422496
20
0.762717
0
VERTEX
8
0
10
0.478496
20
0.762717
0
VERTEX
8
0
10
0.480950
20
0.762478
0
VERTEX
8
0
10
0.483219
20
0.761791
0
VERTEX
8
0
10
0.485259
20
0.760699
0
VERTEX
8
0
10
0.487027
20
0.759248
0
VERTEX
8
0
10
0.488479
20
0.757480
0
VERTEX
8
0
10
0.489570
20
0.755439
0
VERTEX
8
0
10
0.490257
20
0.753170
0
VERTEX
8
0
10
0.490496
20
0.750717
0
SEQEND
8
0
0
CIRCLE
8
0
10
0.450496
20
0.742717
40
0.010000
0
POLYLINE
8
0
66
1
70
1
40
0
41
0
0
VERTEX
8
0
10
0.490496
20
0.650717
0
VERTEX
8
0
10
0.490496
20
0.634717
0
VERTEX
8
0
10
0.490257
20
0.632263
0
VERTEX
8
0
10
0.489570
20
0.629994
0
VERTEX
8
0
10
0.488479
20
0.627954
0
VERTEX
8
0
10
0.487027
20
0.626185
0
VERTEX
8
0
10
0.485259
20
0.624734
0
VERTEX
8
0
10
0.483219
20
0.623643
0
VERTEX
8
0
10
0.480950
20
0.622956
0
VERTEX
8
0
10
0.478496
20
0.622717
0
VERTEX
8
0
10
0.422496
20
0.622717
0
VERTEX
8
0
10
0.420043
20
0.622956
0
VERTEX
8
0
10
0.417773
20
0.623643
0
VERTEX
8
0
10
0.415733
20
0.624734
0
VERTEX
8
0
10
0.413965
20
0.626185
0
VERTEX
8
0
10
0.412513
20
0.627954
0
VERTEX
8
0
10
0.411422
20
0.629994
0
VERTEX
8
0
10
0.410735
20
0.632263
0
VERTEX
8
0
10
0.410496
20
0.634717
0
VERTEX
8
0
10
0.410496
20
0.650717
0
VERTEX
8
0
10
0.410735
20
0.653170
0
VERTEX
8
0
10
0.411422
20
0.655439
0
VERTEX
8
0
10
0.412513
20
0.657480
0
VERTEX
8
0
10
0.413965
20
0.659248
0
VERTEX
8
0
10
0.415733
20
0.660699
0
VERTEX
8
0
10
0.417773
20
0.661791
0
VERTEX
8
0
10
0.420043
20
0.662478
0
VERTEX
8
0
10
0.422496
20
0.662717
0
VERTEX
8
0
10
0.478496
20
0.662717
0
VERTEX
8
0
10
0.480950
20
0.662478
0
VERTEX
8
0
10
0.483219
20
0.661791
0
VERTEX
8
0
10
0.485259
20
0.660699
0
VERTEX
8
0
10
0.487027
20
0.659248
0
VERTEX
8
0
10
0.488479
20
0.657480
0
VERTEX
8
0
10
0.489570
20
0.655439
0
VERTEX
8
0
10
0.490257
20
0.653170
0
VERTEX
8
0
10
0.490496
20
0.650717
0
SEQEND
8
0
0
CIRCLE
8
0
10
0.450496
20
0.642717
40
0.010000
0
POLYLINE
8
0
66
1
70
1
40
0
41
0
0
VERTEX
8
0
10
0.490496
20
0.550717
0
VERTEX
8
0
10
0.490496
20
0.534717
0
VERTEX
8
0
10
0.490257
20
0.532263
0
VERTEX
8
0
10
0.489570
20
0.529994
0
VERTEX
8
0
10
0.488479
20
0.527954
0
VERTEX
8
0
10
0.487027
20
0.526185
0
VERTEX
8
0
10
0.485259
20
0.524734
0
VERTEX
8
0
10
0.483219
20
0.523643
0
VERTEX
8
0
10
0.480950
20
0.522956
0
VERTEX
8
0
10
0.478496
20
0.522717
0
VERTEX
8
0
10
0.422496
20
0.522717
0
VERTEX
8
0
10
0.420043
20
0.522956
0
VERTEX
8
0
10
0.417773
20
0.523643
0
VERTEX
8
0
10
0.415733
20
0.524734
0
VERTEX
8
0
10
0.413965
20
0.526185
0
VERTEX
8
0
10
0.412513
20
0.527954
0
VERTEX
8
0
10
0.411422
20
0.529994
0
VERTEX
8
0
10
0.410735
20
0.532263
0
VERTEX
8
0
10
0.410496
20
0.534717
0
VERTEX
8
0
10
0.410496
20
0.550717
0
VERTEX
8
0
10
0.410735
20
0.553170
0
VERTEX
8
0
10
0.411422
20
0.555439
0
VERTEX
8
0
10
0.412513
20
0.557480
0
VERTEX
8
0
10
0.413965
20
0.559248
0
VERTEX
8
0
10
0.415733
20
0.560699
0
VERTEX
8
0
10
0.417773
20
0.561791
0
VERTEX
8
0
10
0.420043
20
0.562478
0
VERTEX
8
0
10
0.422496
20
0.562717
0
VERTEX
8
0
10
0.478496
20
0.562717
0
VERTEX
8
0
10
0.480950
20
0.562478
0
VERTEX
8
0
10
0.483219
20
0.561791
0
VERTEX
8
0
10
0.485259
20
0.560699
0
VERTEX
8
0
10
0.487027
20
0.559248
0
VERTEX
8
0
10
0.488479
20
0.557480
0
VERTEX
8
0
10
0.489570
20
0.555439
0
VERTEX
8
0
10
0.490257
20
0.553170
0
VERTEX
8
0
10
0.490496
20
0.550717
0
SEQEND
8
0
0
CIRCLE
8
0
10
0.450496
20
0.542717
40
0.010000
0
POLYLINE
8
0
66
1
70
1
40
0
41
0
0
VERTEX
8
0
10
0.490496
20
0.450717
0
VERTEX
8
0
10
0.490496
20
0.434717
0
VERTEX
8
0
10
0.490257
20
0.432263
0
VERTEX
8
0
10
0.489570
20
0.429994
0
VERTEX
8
0
10
0.488479
20
0.427954
0
VERTEX
8
0
10
0.487027
20
0.426185
0
VERTEX
8
0
10
0.485259
20
0.424734
0
VERTEX
8
0
10
0.483219
20
0.423643
0
VERTEX
8
0
10
0.480950
20
0.422956
0
VERTEX
8
0
10
0.478496
20
0.422717
0
VERTEX
8
0
10
0.422496
20
0.422717
0
VERTEX
8
0
10
0.420043
20
0.422956
0
VERTEX
8
0
10
0.417773
20
0.423643
0
VERTEX
8
0
10
0.415733
20
0.424734
0
VERTEX
8
0
10
0.413965
20
0.426185
0
VERTEX
8
0
10
0.412513
20
0.427954
0
VERTEX
8
0
10
0.411422
20
0.429994
0
VERTEX
8
0
10
0.410735
20
0.432263
0
VERTEX
8
0
10
0.410496
20
0.434717
0
VERTEX
8
0
10
0.410496
20
0.450717
0
VERTEX
8
0
10
0.410735
20
0.453170
0
VERTEX
8
0
10
0.411422
20
0.455439
0
VERTEX
8
0
10
0.412513
20
0.457480
0
VERTEX
8
0
10
0.413965
20
0.459248
0
VERTEX
8
0
10
0.415733
20
0.460699
0
VERTEX
8
0
10
0.417773
20
0.461791
0
VERTEX
8
0
10
0.420043
20
0.462478
0
VERTEX
8
0
10
0.422496
20
0.462717
0
VERTEX
8
0
10
0.478496
20
0.462717
0
VERTEX
8
0
10
0.480950
20
0.462478
0
VERTEX
8
0
10
0.483219
20
0.461791
0
VERTEX
8
0
10
0.485259
20
0.460699
0
VERTEX
8
0
10
0.487027
20
0.459248
0
VERTEX
8
0
10
0.488479
20
0.457480
0
VERTEX
8
0
10
0.489570
20
0.455439
0
VERTEX
8
0
10
0.490257
20
0.453170
0
VERTEX
8
0
10
0.490496
20
0.450717
0
SEQEND
8
0
0
CIRCLE
8
0
10
0.450496
20
0.442717
40
0.010000
0
POLYLINE
8
0
66
1
70
1
40
0
41
0
0
VERTEX
8
0
10
0.490496
20
0.350717
0
VERTEX
8
0
10
0.490496
20
0.334717
0
VERTEX
8
0
10
0.490257
20
0.332263
0
VERTEX
8
0
10
0.489570
20
0.329994
0
VERTEX
8
0
10
0.488479
20
0.327954
0
VERTEX
8
0
10
0.487027
20
0.326185
0
VERTEX
8
0
10
0.485259
20
0.324734
0
VERTEX
8
0
10
0.483219
20
0.323643
0
VERTEX
8
0
10
0.480950
20
0.322956
0
VERTEX
8
0
10
0.478496
20
0.322717
0
VERTEX
8
0
10
0.422496
20
0.322717
0
VERTEX
8
0
10
0.420043
20
0.322956
0
VERTEX
8
0
10
0.417773
20
0.323643
0
VERTEX
8
0
10
0.415733
20
0.324734
0
VERTEX
8
0
10
0.413965
20
0.326185
0
VERTEX
8
0
10
0.412513
20
0.327954
0
VERTEX
8
0
10
0.411422
20
0.329994
0
VERTEX
8
0
10
0.410735
20
0.332263
0
VERTEX
8
0
10
0.410496
20
0.334717
0
VERTEX
8
0
10
0.410496
20
0.350717
0
VERTEX
8
0
10
0.410735
20
0.353170
0
VERTEX
8
0
10
0.411422
20
0.355439
0
VERTEX
8
0
10
0.412513
20
0.357480
0
VERTEX
8
0
10
0.413965
20
0.359248
0
VERTEX
8
0
10
0.415733
20
0.360699
0
VERTEX
8
0
10
0.417773
20
0.361791
0
VERTEX
8
0
10
0.420043
20
0.362478
0
VERTEX
8
0
10
0.422496
20
0.362717
0
VERTEX
8
0
10
0.478496
20
0.362717
0
VERTEX
8
0
10
0.480950
20
0.362478
0
VERTEX
8
0
10
0.483219
20
0.361791
0
VERTEX
8
0
10
0.485259
20
0.360699
0
VERTEX
8
0
10
0.487027
20
0.359248
0
VERTEX
8
0
10
0.488479
20
0.357480
0
VERTEX
8
0
10
0.489570
20
0.355439
0
VERTEX
8
0
10
0.490257
20
0.353170
0
VERTEX
8
0
10
0.490496
20
0.350717
0
SEQEND
8
0
0
CIRCLE
8
0
10
0.450496
20
0.342717
40
0.010000
0
POLYLINE
8
0
66
1
70
1
40
0
41
0
0
VERTEX
8
0
10
0.490496
20
0.250717
0
VERTEX
8
0
10
0.490496
20
0.234717
0
VERTEX
8
0
10
0.490257
20
0.232263
0
VERTEX
8
0
10
0.489570
20
0.229994
0
VERTEX
8
0
10
0.488479
20
0.227954
0
VERTEX
8
0
10
0.487027
20
0.226185
0
VERTEX
8
0
10
0.485259
20
0.224734
0
VERTEX
8
0
10
0.483219
20
0.223643
0
VERTEX
8
0
10
0.480950
20
0.222956
0
VERTEX
8
0
10
0.478496
20
0.222717
0
VERTEX
8
0
10
0.422496
20
0.222717
0
VERTEX
8
0
10
0.420043
20
0.222956
0
VERTEX
8
0
10
0.417773
20
0.223643
0
VERTEX
8
0
10
0.415733
20
0.224734
0
VERTEX
8
0
10
0.413965
20
0.226185
0
VERTEX
8
0
10
0.412513
20
0.227954
0
VERTEX
8
0
10
0.411422
20
0.229994
0
VERTEX
8
0
10
0.410735
20
0.232263
0
VERTEX
8
0
10
0.410496
20
0.234717
0
VERTEX
8
0
10
0.410496
20
0.250717
0
VERTEX
8
0
10
0.410735
20
0.253170
0
VERTEX
8
0
10
0.411422
20
0.255439
0
VERTEX
8
0
10
0.412513
20
0.257480
0
VERTEX
8
0
10
0.413965
20
0.259248
0
VERTEX
8
0
10
0.415733
20
0.260699
0
VERTEX
8
0
10
0.417773
20
0.261791
0
VERTEX
8
0
10
0.420043
20
0.262478
0
VERTEX
8
0
10
0.422496
20
0.262717
0
VERTEX
8
0
10
0.478496
20
0.262717
0
VERTEX
8
0
10
0.480950
20
0.262478
0
VERTEX
8
0
10
0.483219
20
0.261791
0
VERTEX
8
0
10
0.485259
20
0.260699
0
VERTEX
8
0
10
0.487027
20
0.259248
0
VERTEX
8
0
10
0.488479
20
0.257480
0
VERTEX
8
0
10
0.489570
20
0.255439
0
VERTEX
8
0
10
0.490257
20
0.253170
0
VERTEX
8
0
10
0.490496
20
0.250717
0
SEQEND
8
0
0
CIRCLE
8
0
10
0.450496
20
0.242717
40
0.010000
0
POLYLINE
8
0
66
1
70
1
40
0
41
0
0
VERTEX
8
0
10
0.490496
20
0.150717
0
VERTEX
8
0
10
0.490496
20
0.134717
0
VERTEX
8
0
10
0.490257
20
0.132263
0
VERTEX
8
0
10
0.489570
20
0.129994
0
VERTEX
8
0
10
0.488479
20
0.127954
0
VERTEX
8
0
10
0.487027
20
0.126185
0
VERTEX
8
0
10
0.485259
20
0.124734
0
VERTEX
8
0
10
0.483219
20
0.123643
0
VERTEX
8
0
10
0.480950
20
0.122956
0
VERTEX
8
0
10
0.478496
20
0.122717
0
VERTEX
8
0
10
0.422496
20
0.122717
0
VERTEX
8
0
10
0.420043
20
0.122956
0
VERTEX
8
0
10
0.417773
20
0.123643
0
VERTEX
8
0
10
0.415733
20
0.124734
0
VERTEX
8
0
10
0.413965
20
0.126185
0
VERTEX
8
0
10
0.412513
20
0.127954
0
VERTEX
8
0
10
0.411422
20
0.129994
0
VERTEX
8
0
10
0.410735
20
0.132263
0
VERTEX
8
0
10
0.410496
20
0.134717
0
VERTEX
8
0
10
0.410496
20
0.150717
0
VERTEX
8
0
10
0.410735
20
0.153170
0
VERTEX
8
0
10
0.411422
20
0.155439
0
VERTEX
8
0
10
0.412513
20
0.157480
0
VERTEX
8
0
10
0.413965
20
0.159248
0
VERTEX
8
0
10
0.415733
20
0.160699
0
VERTEX
8
0
10
0.417773
20
0.161791
0
VERTEX
8
0
10
0.420043
20
0.162478
0
VERTEX
8
0
10
0.422496
20
0.162717
0
VERTEX
8
0
10
0.478496
20
0.162717
0
VERTEX
8
0
10
0.480950
20
0.162478
0
VERTEX
8
0
10
0.483219
20
0.161791
0
VERTEX
8
0
10
0.485259
20
0.160699
0
VERTEX
8
0
10
0.487027
20
0.159248
0
VERTEX
8
0
10
0.488479
20
0.157480
0
VERTEX
8
0
10
0.489570
20
0.155439
0
VERTEX
8
0
10
0.490257
20
0.153170
0
VERTEX
8
0
10
0.490496
20
0.150717
0
SEQEND
8
0
0
CIRCLE
8
0
10
0.450496
20
0.142717
40
0.010000
0
POLYLINE
8
0
66
1
70
1
40
0
41
0
0
VERTEX
8
0
10
0.490496
20
0.050717
0
VERTEX
8
0
10
0.490496
20
0.034717
0
VERTEX
8
0
10
0.490257
20
0.032263
0
VERTEX
8
0
10
0.489570
20
0.029994
0
VERTEX
8
0
10
0.488479
20
0.027954
0
VERTEX
8
0
10
0.487027
20
0.026185
0
VERTEX
8
0
10
0.485259
20
0.024734
0
VERTEX
8
0
10
0.483219
20
0.023643
0
VERTEX
8
0
10
0.480950
20
0.022956
0
VERTEX
8
0
10
0.478496
20
0.022717
0
VERTEX
8
0
10
0.422496
20
0.022717
0
VERTEX
8
0
10
0.420043
20
0.022956
0
VERTEX
8
0
10
0.417773
20
0.023643
0
VERTEX
8
0
10
0.415733
20
0.024734
0
VERTEX
8
0
10
0.413965
20
0.026185
0
VERTEX
8
0
10
0.412513
20
0.027954
0
VERTEX
8
0
10
0.411422
20
0.029994
0
VERTEX
8
0
10
0.410735
20
0.032263
0
VERTEX
8
0
10
0.410496
20
0.034717
0
VERTEX
8
0
10
0.410496
20
0.050717
0
VERTEX
8
0
10
0.410735
20
0.053170
0
VERTEX
8
0
10
0.411422
20
0.055439
0
VERTEX
8
0
10
0.412513
20
0.057480
0
VERTEX
8
0
10
0.413965
20
0.059248
0
VERTEX
8
0
10
0.415733
20
0.060699
0
VERTEX
8
0
10
0.417773
20
0.061791
0
VERTEX
8
0
10
0.420043
20
0.062478
0
VERTEX
8
0
10
0.422496
20
0.062717
0
VERTEX
8
0
10
0.478496
20
0.062717
0
VERTEX
8
0
10
0.480950
20
0.062478
0
VERTEX
8
0
10
0.483219
20
0.061791
0
VERTEX
8
0
10
0.485259
20
0.060699
0
VERTEX
8
0
10
0.487027
20
0.059248
0
VERTEX
8
0
10
0.488479
20
0.057480
0
VERTEX
8
0
10
0.489570
20
0.055439
0
VERTEX
8
0
10
0.490257
20
0.053170
0
VERTEX
8
0
10
0.490496
20
0.050717
0
SEQEND
8
0
0
CIRCLE
8
0
10
0.450496
20
0.042717
40
0.010000
0
POLYLINE
8
0
66
1
70
1
40
0
41
0
0
VERTEX
8
0
10
0.490496
20
-0.049283
0
VERTEX
8
0
10
0.490496
20
-0.065283
0
VERTEX
8
0
10
0.490257
20
-0.067737
0
VERTEX
8
0
10
0.489570
20
-0.070006
0
VERTEX
8
0
10
0.488479
20
-0.072046
0
VERTEX
8
0
10
0.487027
20
-0.073815
0
VERTEX
8
0
10
0.485259
20
-0.075266
0
VERTEX
8
0
10
0.483219
20
-0.076357
0
VERTEX
8
0
10
0.480950
20
-0.077044
0
VERTEX
8
0
10
0.478496
20
-0.077283
0
VERTEX
8
0
10
0.422496
20
-0.077283
0
VERTEX
8
0
10
0.420043
20
-0.077044
0
VERTEX
8
0
10
0.417773
20
-0.076357
0
VERTEX
8
0
10
0.415733
20
-0.075266
0
VERTEX
8
0
10
0.413965
20
-0.073815
0
VERTEX
8
0
10
0.412513
20
-0.072046
0
VERTEX
8
0
10
0.411422
20
-0.070006
0
VERTEX
8
0
10
0.410735
20
-0.067737
0
VERTEX
8
0
10
0.410496
20
-0.065283
0
VERTEX
8
0
10
0.410496
20
-0.049283
0
VERTEX
8
0
10
0.410735
20
-0.046830
0
VERTEX
8
0
10
0.411422
20
-0.044561
0
VERTEX
8
0
10
0.412513
20
-0.042520
0
VERTEX
8
0
10
0.413965
20
-0.040752
0
VERTEX
8
0
10
0.415733
20
-0.039301
0
VERTEX
8
0
10
0.417773
20
-0.038209
0
VERTEX
8
0
10
0.420043
20
-0.037522
0
VERTEX
8
0
10
0.422496
20
-0.037283
0
VERTEX
8
0
10
0.478496
20
-0.037283
0
VERTEX
8
0
10
0.480950
20
-0.037522
0
VERTEX
8
0
10
0.483219
20
-0.038209
0
VERTEX
8
0
10
0.485259
20
-0.039301
0
VERTEX
8
0
10
0.487027
20
-0.040752
0
VERTEX
8
0
10
0.488479
20
-0.042520
0
VERTEX
8
0
10
0.489570
20
-0.044561
0
VERTEX
8
0
10
0.490257
20
-0.046830
0
VERTEX
8
0
10
0.490496
20
-0.049283
0
SEQEND
8
0
0
CIRCLE
8
0
10
0.450496
20
-0.057283
40
0.010000
0
POLYLINE
8
0
66
1
70
1
40
0
41
0
0
VERTEX
8
0
10
0.490496
20
-0.149283
0
VERTEX
8
0
10
0.490496
20
-0.165283
0
VERTEX
8
0
10
0.490257
20
-0.167737
0
VERTEX
8
0
10
0.489570
20
-0.170006
0
VERTEX
8
0
10
0.488479
20
-0.172046
0
VERTEX
8
0
10
0.487027
20
-0.173815
0
VERTEX
8
0
10
0.485259
20
-0.175266
0
VERTEX
8
0
10
0.483219
20
-0.176357
0
VERTEX
8
0
10
0.480950
20
-0.177044
0
VERTEX
8
0
10
0.478496
20
-0.177283
0
VERTEX
8
0
10
0.422496
20
-0.177283
0
VERTEX
8
0
10
0.420043
20
-0.177044
0
VERTEX
8
0
10
0.417773
20
-0.176357
0
VERTEX
8
0
10
0.415733
20
-0.175266
0
VERTEX
8
0
10
0.413965
20
-0.173815
0
VERTEX
8
0
10
0.412513
20
-0.172046
0
VERTEX
8
0
10
0.411422
20
-0.170006
0
VERTEX
8
0
10
0.410735
20
-0.167737
0
VERTEX
8
0
10
0.410496
20
-0.165283
0
VERTEX
8
0
10
0.410496
20
-0.149283
0
VERTEX
8
0
10
0.410735
20
-0.146830
0
VERTEX
8
0
10
0.411422
20
-0.144561
0
VERTEX
8
0
10
0.412513
20
-0.142520
0
VERTEX
8
0
10
0.413965
20
-0.140752
0
VERTEX
8
0
10
0.415733
20
-0.139301
0
VERTEX
8
0
10
0.417773
20
-0.138209
0
VERTEX
8
0
10
0.420043
20
-0.137522
0
VERTEX
8
0
10
0.422496
20
-0.137283
0
VERTEX
8
0
10
0.478496
20
-0.137283
0
VERTEX
8
0
10
0.480950
20
-0.137522
0
VERTEX
8
0
10
0.483219
20
-0.138209
0
VERTEX
8
0
10
0.485259
20
-0.139301
0
VERTEX
8
0
10
0.487027
20
-0.140752
0
VERTEX
8
0
10
0.488479
20
-0.142520
0
VERTEX
8
0
10
0.489570
20
-0.144561
0
VERTEX
8
0
10
0.490257
20
-0.146830
0
VERTEX
8
0
10
0.490496
20
-0.149283
0
SEQEND
8
0
0
CIRCLE
8
0
10
0.450496
20
-0.157283
40
0.010000
0
POLYLINE
8
0
66
1
40
0.008000
41
0.008000
0
VERTEX
8
0
10
-0.531496
20
-1.269094
0
VERTEX
8
0
10
0.531496
20
-1.269094
0
VERTEX
8
0
10
0.531496
20
1.269094
0
VERTEX
8
0
10
-0.531496
20
1.269094
0
VERTEX
8
0
10
-0.531496
20
-1.269094
0
SEQEND
8
0
0
TEXT
8
0
10
0.406000
20
0.982000
40
0.032000
41
1.250000
1
VP
0
TEXT
8
0
10
0.406000
20
0.881000
40
0.032000
41
1.250000
1
VN
0
TEXT
8
0
10
0.386000
20
0.778000
40
0.032000
41
1.250000
1
RST
0
TEXT
8
0
10
0.366000
20
0.675000
40
0.032000
41
1.250000
1
IO34
0
TEXT
8
0
10
0.366000
20
0.575000
40
0.032000
41
1.250000
1
IO35
0
TEXT
8
0
10
0.172000
20
0.475000
40
0.032000
41
1.250000
1
SCLK_IO14
0
TEXT
8
0
10
0.365000
20
0.377000
40
0.032000
41
1.250000
1
IO12
0
TEXT
8
0
10
0.226000
20
0.281000
40
0.032000
41
1.250000
1
CS_IO13
0
TEXT
8
0
10
0.162000
20
0.177000
40
0.032000
41
1.250000
1
MOSI_IO15
0
TEXT
8
0
10
0.200000
20
0.077000
40
0.032000
41
1.250000
1
MISO_IO2
0
TEXT
8
0
10
0.386000
20
-0.024000
40
0.032000
41
1.250000
1
IO0
0
TEXT
8
0
10
0.386000
20
-0.126000
40
0.032000
41
1.250000
1
IO4
0
TEXT
8
0
10
0.205000
20
-0.232000
40
0.032000
41
1.250000
1
LED_IO25
0
TEXT
8
0
10
-0.494500
20
0.980000
40
0.032000
41
1.250000
1
IO21_SDA
0
TEXT
8
0
10
-0.489500
20
0.879000
40
0.032000
41
1.250000
1
TXD
0
TEXT
8
0
10
-0.489500
20
0.771000
40
0.032000
41
1.250000
1
RXD
0
TEXT
8
0
10
-0.494500
20
0.675000
40
0.032000
41
1.250000
1
IO22_SCL
0
TEXT
8
0
10
-0.494500
20
0.575000
40
0.032000
41
1.250000
1
IO23_LORA_RST
0
TEXT
8
0
10
-0.494500
20
0.475000
40
0.032000
41
1.250000
1
IO19_LORA_MISO
0
TEXT
8
0
10
-0.514500
20
0.374000
40
0.032000
41
1.250000
1
LORA2
0
TEXT
8
0
10
-0.514500
20
0.276000
40
0.032000
41
1.250000
1
LORA1
0
TEXT
8
0
10
-0.494500
20
0.174000
40
0.032000
41
1.250000
1
IO26_LORA_DIO
0
TEXT
8
0
10
-0.474500
20
0.077000
40
0.032000
41
1.250000
1
GND
0
TEXT
8
0
10
-0.474500
20
-0.024000
40
0.032000
41
1.250000
1
3V3
0
TEXT
8
0
10
-0.474500
20
-0.124000
40
0.032000
41
1.250000
1
GND
0
TEXT
8
0
10
-0.479500
20
-0.226000
40
0.032000
41
1.250000
1
5V
0
POLYLINE
8
0
66
1
40
0.008000
41
0.008000
0
VERTEX
8
0
10
0.287000
20
-0.894000
0
VERTEX
8
0
10
0.745000
20
-0.894000
0
VERTEX
8
0
10
0.745000
20
-0.681000
0
VERTEX
8
0
10
0.287000
20
-0.681000
0
VERTEX
8
0
10
0.287000
20
-0.894000
0
SEQEND
8
0
0
POLYLINE
8
0
66
1
40
0.008000
41
0.008000
0
VERTEX
8
0
10
-0.414000
20
-1.280000
0
VERTEX
8
0
10
-0.141000
20
-1.280000
0
VERTEX
8
0
10
-0.141000
20
-1.091000
0
VERTEX
8
0
10
-0.414000
20
-1.091000
0
VERTEX
8
0
10
-0.414000
20
-1.280000
0
SEQEND
8
0
0
POLYLINE
8
0
66
1
40
0.008000
41
0.008000
0
VERTEX
8
0
10
0.044000
20
-1.272000
0
VERTEX
8
0
10
0.469000
20
-1.272000
0
VERTEX
8
0
10
0.469000
20
-1.094000
0
VERTEX
8
0
10
0.044000
20
-1.094000
0
VERTEX
8
0
10
0.044000
20
-1.272000
0
SEQEND
8
0
0
CIRCLE
8
0
10
0.359000
20
-0.738000
40
0.023000
0
CIRCLE
8
0
10
0.483000
20
-0.738000
40
0.023000
0
CIRCLE
8
0
10
0.418000
20
-0.800000
40
0.023000
0
CIRCLE
8
0
10
0.356000
20
-0.849000
40
0.023000
0
CIRCLE
8
0
10
0.483000
20
-0.847000
40
0.023000
0
TEXT
8
0
10
-0.328000
20
-1.207000
40
0.032000
41
1.250000
1
USB
0
TEXT
8
0
10
0.155000
20
-1.199000
40
0.032000
41
1.250000
1
SDCARD
0
ENDSEC
0
EOF

